<?xml version="1.0" encoding="UTF-8" standalone="no"?>
<svg width="63px" height="63px" viewBox="0 0 63 63" version="1.1" xmlns="http://www.w3.org/2000/svg" xmlns:xlink="http://www.w3.org/1999/xlink">
    <!-- Generator: Sketch 40.2 (33826) - http://www.bohemiancoding.com/sketch -->
    <title>icn-2</title>
    <desc>Created with Sketch.</desc>
    <defs></defs>
    <g id="Landing" stroke="none" stroke-width="1" fill="none" fill-rule="evenodd">
        <g id="22-Landing" transform="translate(-522.000000, -1636.000000)" fill="#1571C3">
            <path d="M575.693182,1636.00011 C575.334233,1636.00727 574.94027,1636.17135 574.686435,1636.42514 L567.773438,1643.33818 C563.195074,1640.51527 557.809237,1638.86374 552.04581,1638.86374 C543.751194,1638.86374 536.25802,1642.23496 530.814631,1647.67837 C525.37124,1653.12172 521.999997,1660.63733 522,1668.93196 C521.999987,1685.52122 535.478935,1699.00014 552.068182,1699.00014 C568.657357,1699.00007 582.136345,1685.52122 582.136364,1668.93196 C582.136379,1663.16857 580.482036,1657.80226 577.661932,1653.22667 L584.574929,1646.31364 C584.840145,1646.04846 585,1645.69674 585,1645.30693 C585,1644.43559 584.209911,1643.87511 583.568182,1643.87511 L577.125,1643.87511 L577.125,1637.43193 C577.125,1636.66705 576.4663,1635.99023 575.693182,1636.00011 L575.693182,1636.00011 Z M574.261364,1640.89957 L574.261364,1644.72525 L569.965909,1649.0207 L569.965909,1645.19503 L574.261364,1640.89957 Z M552.068182,1641.72738 C557.629162,1641.72738 562.799323,1643.41392 567.102273,1646.26889 L567.102273,1651.68295 C563.075666,1648.17013 557.8217,1646.02283 552.068182,1646.02283 C545.750491,1646.02283 540.018587,1648.58658 535.870739,1652.73448 C531.722888,1656.88232 529.159097,1662.61424 529.159091,1668.93196 C529.15911,1681.5674 539.432819,1691.84105 552.068182,1691.84105 C564.703578,1691.84105 574.97732,1681.5674 574.977273,1668.93196 C574.977293,1663.18074 572.849806,1657.92382 569.339489,1653.89783 L574.731179,1653.89783 C577.585406,1658.20002 579.27272,1663.34862 579.272727,1668.90955 C579.272679,1683.95109 567.087393,1696.13651 552.04581,1696.13651 C537.004221,1696.13658 524.863628,1683.97357 524.863636,1668.93196 C524.863635,1661.41116 527.884811,1654.5904 532.805753,1649.66946 C537.72669,1644.74852 544.547381,1641.72738 552.068182,1641.72738 L552.068182,1641.72738 Z M576.29723,1646.73874 L580.100497,1646.73874 L575.805043,1651.0342 L572.001776,1651.0342 L576.29723,1646.73874 Z M552.068182,1648.88647 C557.092317,1648.88647 561.686898,1650.72084 565.200639,1653.7636 L562.135653,1656.82855 C559.406751,1654.55704 555.889342,1653.18193 552.068182,1653.18193 C547.72742,1653.18193 543.779156,1654.93826 540.926847,1657.79059 C538.074536,1660.64284 536.318183,1664.59115 536.318182,1668.93196 C536.318166,1677.61343 543.386677,1684.68196 552.068182,1684.68196 C560.749799,1684.68203 567.818274,1677.61358 567.818182,1668.93196 C567.818192,1665.11076 566.443019,1661.59336 564.17152,1658.86445 L567.236506,1655.79943 C570.279234,1659.31319 572.113641,1663.90775 572.113636,1668.93196 C572.113622,1680.01967 563.155984,1688.97742 552.068182,1688.97742 C540.980449,1688.97742 532.022731,1680.01975 532.022727,1668.93196 C532.022728,1663.388 534.258839,1658.37334 537.884233,1654.74798 C541.509627,1651.12254 546.524301,1648.88647 552.068182,1648.88647 L552.068182,1648.88647 Z M552.068182,1656.04556 C555.119547,1656.04556 557.894573,1657.10031 560.099787,1658.86445 L554.439631,1664.52457 C553.729313,1664.13662 552.927802,1663.92056 552.068182,1663.92056 C550.692803,1663.92056 549.442379,1664.48813 548.533381,1665.39712 C547.624378,1666.30615 547.056833,1667.55663 547.056818,1668.93196 C547.056773,1671.6827 549.317441,1673.94332 552.068182,1673.94332 C554.818942,1673.94332 557.079551,1671.6827 557.079545,1668.93196 C557.079574,1668.06585 556.868893,1667.25222 556.475497,1666.5381 L562.135653,1660.90028 C563.890074,1663.10242 564.954524,1665.88985 564.954545,1668.93196 C564.954547,1676.06585 559.202106,1681.8184 552.068182,1681.81832 C544.934332,1681.8184 539.181806,1676.06578 539.181818,1668.93196 C539.181815,1665.36498 540.610485,1662.13394 542.940341,1659.80408 C545.27019,1657.47423 548.501232,1656.04556 552.068182,1656.04556 L552.068182,1656.04556 Z M552.068182,1666.78423 C553.271248,1666.78423 554.215946,1667.72902 554.215909,1668.93196 C554.215881,1670.13505 553.271306,1671.07969 552.068182,1671.07969 C550.865097,1671.07976 549.920434,1670.13497 549.920455,1668.93196 C549.920411,1668.33038 550.16037,1667.79724 550.546875,1667.41065 C550.933382,1667.02406 551.466533,1666.78409 552.068182,1666.78423 L552.068182,1666.78423 Z" id="icn-2"></path>
        </g>
    </g>
</svg>