<?xml version="1.0" encoding="UTF-8" standalone="no"?>
<svg width="63px" height="64px" viewBox="0 0 63 64" version="1.1" xmlns="http://www.w3.org/2000/svg" xmlns:xlink="http://www.w3.org/1999/xlink">
    <!-- Generator: Sketch 40.2 (33826) - http://www.bohemiancoding.com/sketch -->
    <title>icn-5</title>
    <desc>Created with Sketch.</desc>
    <defs></defs>
    <g id="Landing" stroke="none" stroke-width="1" fill="none" fill-rule="evenodd">
        <g id="22-Landing" transform="translate(-1034.000000, -1634.000000)" fill="#1571C3">
            <path d="M1094.57692,1648.72645 L1066.61219,1648.72645 C1067.44088,1647.27991 1067.92308,1645.60755 1067.92308,1643.81818 C1067.92308,1638.40427 1063.57527,1634 1058.23077,1634 C1052.88627,1634 1048.53846,1638.40427 1048.53846,1643.81818 C1048.53846,1645.60755 1049.02065,1647.27991 1049.84935,1648.72645 L1036.42308,1648.72645 C1035.08473,1648.72645 1034,1649.82527 1034,1651.181 L1034,1670.81409 L1034,1670.81818 L1034,1670.82227 L1034,1695.36282 C1034,1696.71855 1035.08473,1697.81736 1036.42308,1697.81736 L1094.57692,1697.81736 C1095.91527,1697.81736 1097,1696.71855 1097,1695.36282 L1097,1651.181 C1097,1649.82527 1095.91527,1648.72645 1094.57692,1648.72645 L1094.57692,1648.72645 Z M1048.53846,1680.63636 L1048.53846,1673.27273 L1077.61538,1673.27273 L1077.61538,1680.63636 L1048.53846,1680.63636 L1048.53846,1680.63636 Z M1056.03869,1662.044 C1056.4385,1662.90473 1057.29223,1663.45373 1058.23077,1663.45373 C1059.16931,1663.45373 1060.02385,1662.90473 1060.42285,1662.044 L1064.32885,1653.63555 L1077.61538,1653.63555 L1077.61538,1668.36364 L1048.53846,1668.36364 L1048.53846,1653.63555 L1052.13188,1653.63555 L1056.03869,1662.044 L1056.03869,1662.044 Z M1082.46154,1673.27273 L1092.15385,1673.27273 L1092.15385,1680.63636 L1082.46154,1680.63636 L1082.46154,1673.27273 L1082.46154,1673.27273 Z M1092.15385,1668.36364 L1082.46154,1668.36364 L1082.46154,1653.63555 L1092.15385,1653.63555 L1092.15385,1668.36364 L1092.15385,1668.36364 Z M1058.23077,1638.90909 C1060.90342,1638.90909 1063.07692,1641.11082 1063.07692,1643.81818 C1063.07692,1646.51982 1060.9115,1648.71745 1058.24692,1648.72645 L1058.21462,1648.72645 C1055.55004,1648.71745 1053.38462,1646.51982 1053.38462,1643.81818 C1053.38462,1641.11082 1055.55812,1638.90909 1058.23077,1638.90909 L1058.23077,1638.90909 Z M1043.69231,1653.63555 L1043.69231,1668.36364 L1038.84615,1668.36364 L1038.84615,1653.63555 L1043.69231,1653.63555 L1043.69231,1653.63555 Z M1038.84615,1673.27273 L1043.69231,1673.27273 L1043.69231,1692.90827 L1038.84615,1692.90827 L1038.84615,1673.27273 L1038.84615,1673.27273 Z M1048.53846,1692.90827 L1048.53846,1685.54545 L1092.15385,1685.54545 L1092.15385,1692.90827 L1048.53846,1692.90827 L1048.53846,1692.90827 Z" id="icn-5"></path>
        </g>
    </g>
</svg>