<?xml version="1.0" encoding="UTF-8" standalone="no"?>
<svg width="63px" height="48px" viewBox="0 0 63 48" version="1.1" xmlns="http://www.w3.org/2000/svg" xmlns:xlink="http://www.w3.org/1999/xlink">
    <!-- Generator: Sketch 40.2 (33826) - http://www.bohemiancoding.com/sketch -->
    <title>icn-3</title>
    <desc>Created with Sketch.</desc>
    <defs></defs>
    <g id="Landing" stroke="none" stroke-width="1" fill="none" fill-rule="evenodd">
        <g id="22-Landing" transform="translate(-692.000000, -1646.000000)" fill="#1571C3">
            <path d="M750.349582,1662.58356 L748.945682,1662.58356 C748.770195,1660.91643 748.506964,1658.28412 747.892758,1655.65181 C746.401114,1649.24652 743.856546,1646 740.346797,1646 L706.653203,1646 C703.143454,1646 700.598886,1649.24652 699.107242,1655.65181 C698.493036,1658.37187 698.142061,1661.00418 698.054318,1662.67131 L696.650418,1662.67131 C694.10585,1662.67131 692,1664.77716 692,1667.32173 L692,1679.86908 C692,1682.41365 694.10585,1684.5195 696.650418,1684.5195 L697.089136,1684.5195 L697.089136,1690.66156 C697.17688,1693.03064 700.774373,1693.29387 704.108635,1693.29387 C707.793872,1693.29387 711.128134,1692.94289 711.128134,1690.66156 L711.128134,1684.5195 L735.696379,1684.5195 L735.696379,1690.66156 C735.784123,1693.03064 739.381616,1693.29387 742.715877,1693.29387 C746.401114,1693.29387 749.735376,1692.94289 749.735376,1690.66156 L749.735376,1684.5195 L750.349582,1684.5195 C752.89415,1684.5195 755,1682.41365 755,1679.86908 L755,1667.32173 C755,1664.68941 752.89415,1662.58356 750.349582,1662.58356 L750.349582,1662.58356 Z M706.56546,1649.42201 L740.259053,1649.42201 C742.013928,1649.42201 744.64624,1653.6337 745.435933,1662.58356 L741.926184,1662.58356 C741.13649,1658.98607 737.889972,1656.35376 734.116992,1656.35376 C730.344011,1656.35376 727.097493,1659.07382 726.307799,1662.58356 L701.388579,1662.58356 C702.002786,1656.52925 703.845404,1649.42201 706.56546,1649.42201 L706.56546,1649.42201 Z M738.240947,1662.58356 L729.905292,1662.58356 C730.607242,1661.00418 732.18663,1659.86351 734.029248,1659.86351 C735.95961,1659.86351 737.538997,1661.00418 738.240947,1662.58356 L738.240947,1662.58356 Z M707.618384,1689.60863 C707.004178,1689.69638 705.951253,1689.78412 704.108635,1689.78412 C702.266017,1689.78412 701.125348,1689.69638 700.598886,1689.52089 L700.598886,1684.5195 L707.618384,1684.5195 L707.618384,1689.60863 L707.618384,1689.60863 Z M746.225627,1689.60863 C745.611421,1689.69638 744.558496,1689.78412 742.715877,1689.78412 C740.873259,1689.78412 739.732591,1689.69638 739.206128,1689.52089 L739.206128,1684.5195 L746.225627,1684.5195 L746.225627,1689.60863 L746.225627,1689.60863 Z M751.490251,1679.86908 C751.490251,1680.48329 750.963788,1681.00975 750.349582,1681.00975 L696.47493,1681.00975 C695.860724,1681.00975 695.334262,1680.48329 695.334262,1679.86908 L695.334262,1667.23398 C695.334262,1666.61978 695.860724,1666.09331 696.47493,1666.09331 L750.261838,1666.09331 C750.876045,1666.09331 751.402507,1666.61978 751.402507,1667.23398 L751.490251,1679.86908 L751.490251,1679.86908 Z M702.880223,1667.93593 C699.896936,1667.93593 697.527855,1670.39276 697.527855,1673.2883 C697.527855,1676.18384 699.98468,1678.64067 702.880223,1678.64067 C705.86351,1678.64067 708.232591,1676.18384 708.232591,1673.2883 C708.232591,1670.39276 705.86351,1667.93593 702.880223,1667.93593 L702.880223,1667.93593 Z M702.880223,1675.21866 C701.827298,1675.21866 701.037604,1674.34122 701.037604,1673.37604 C701.037604,1672.41086 701.915042,1671.53343 702.880223,1671.53343 C703.933148,1671.53343 704.722841,1672.41086 704.722841,1673.37604 C704.722841,1674.34122 703.933148,1675.21866 702.880223,1675.21866 L702.880223,1675.21866 Z M743.94429,1667.93593 C740.961003,1667.93593 738.591922,1670.39276 738.591922,1673.2883 C738.591922,1676.18384 741.048747,1678.64067 743.94429,1678.64067 C746.927577,1678.64067 749.296657,1676.18384 749.296657,1673.2883 C749.296657,1670.39276 746.927577,1667.93593 743.94429,1667.93593 L743.94429,1667.93593 Z M743.94429,1675.21866 C742.891365,1675.21866 742.101671,1674.34122 742.101671,1673.37604 C742.101671,1672.41086 742.979109,1671.53343 743.94429,1671.53343 C744.997214,1671.53343 745.786908,1672.41086 745.786908,1673.37604 C745.786908,1674.34122 744.997214,1675.21866 743.94429,1675.21866 L743.94429,1675.21866 Z M732.18663,1675.74512 C732.18663,1676.71031 731.396936,1677.5 730.431755,1677.5 L716.392758,1677.5 C715.427577,1677.5 714.637883,1676.71031 714.637883,1675.74512 C714.637883,1674.77994 715.427577,1673.99025 716.392758,1673.99025 L730.431755,1673.99025 C731.396936,1673.99025 732.18663,1674.77994 732.18663,1675.74512 L732.18663,1675.74512 Z M733.941504,1671.35794 C733.941504,1672.32312 733.151811,1673.11281 732.18663,1673.11281 L714.637883,1673.11281 C713.672702,1673.11281 712.883008,1672.32312 712.883008,1671.35794 C712.883008,1670.39276 713.672702,1669.60306 714.637883,1669.60306 L732.18663,1669.60306 C733.151811,1669.60306 733.941504,1670.39276 733.941504,1671.35794 L733.941504,1671.35794 Z" id="icn-3"></path>
        </g>
    </g>
</svg>