<?xml version="1.0" encoding="UTF-8" standalone="no"?>
<svg width="64px" height="62px" viewBox="0 0 64 62" version="1.1" xmlns="http://www.w3.org/2000/svg" xmlns:xlink="http://www.w3.org/1999/xlink">
    <!-- Generator: Sketch 40.2 (33826) - http://www.bohemiancoding.com/sketch -->
    <title>icn-4</title>
    <desc>Created with Sketch.</desc>
    <defs></defs>
    <g id="Landing" stroke="none" stroke-width="1" fill="none" fill-rule="evenodd">
        <g id="22-Landing" transform="translate(-859.000000, -1636.000000)" fill="#1571C3">
            <path d="M898.028435,1693.40842 L898.028435,1691.09897 C898.028435,1689.83104 897.000575,1688.80318 895.732645,1688.80318 C894.464715,1688.80318 893.436854,1689.83104 893.436854,1691.09897 L893.436854,1693.40842 L880.810008,1693.40842 L880.810008,1691.09897 C880.810008,1689.83104 879.782147,1688.80318 878.514217,1688.80318 C877.246288,1688.80318 876.218427,1689.83104 876.218427,1691.09897 L876.218427,1693.40842 L863.591581,1693.39476 L863.591581,1677.19004 L874.600842,1669.21782 C875.712198,1669.98655 877.06062,1670.43685 878.514217,1670.43685 C880.063525,1670.43685 881.493351,1669.92529 882.643999,1669.06187 L889.05482,1673.33575 C888.917974,1673.87729 888.845274,1674.44437 888.845274,1675.02843 C888.845274,1678.83222 891.928855,1681.91581 895.732645,1681.91581 C899.536435,1681.91581 902.620016,1678.83222 902.620016,1675.02843 C902.620016,1673.77668 902.28608,1672.60291 901.702434,1671.59137 L910.105299,1661.78803 C910.972709,1662.18211 911.936259,1662.40159 912.951072,1662.40159 C916.754862,1662.40159 919.838443,1659.31801 919.838443,1655.51422 C919.838443,1651.71043 916.754862,1648.62685 912.951072,1648.62685 C909.147282,1648.62685 906.063701,1651.71043 906.063701,1655.51422 C906.063701,1656.62317 906.325788,1657.6709 906.791401,1658.59886 L898.216728,1668.60265 C897.446115,1668.30454 896.608471,1668.14106 895.732645,1668.14106 C894.183337,1668.14106 892.753511,1668.65263 891.602863,1669.51605 L885.192042,1665.24217 C885.328888,1664.70063 885.401588,1664.13354 885.401588,1663.54948 C885.401588,1659.74569 882.318007,1656.66211 878.514217,1656.66211 C874.710428,1656.66211 871.626847,1659.74569 871.626847,1663.54948 C871.626847,1664.22682 871.724622,1664.88132 871.906828,1665.49963 L863.591581,1671.52102 L863.591581,1638.29579 C863.591581,1637.02786 862.56372,1636 861.29579,1636 C860.02786,1636 859,1637.02786 859,1638.29579 L859,1695.70421 C859,1696.97214 860.02786,1698 861.29579,1698 L919.838443,1698 C921.106373,1698 922.134233,1696.97214 922.134233,1695.70421 C922.134233,1694.43628 921.106373,1693.40842 919.838443,1693.40842 L915.246862,1693.40842 L915.246862,1691.09897 C915.246862,1689.83104 914.219002,1688.80318 912.951072,1688.80318 C911.683142,1688.80318 910.655282,1689.83104 910.655282,1691.09897 L910.655282,1693.40842 L898.028435,1693.40842 L898.028435,1693.40842 Z M876.218427,1663.54948 C876.218427,1662.28155 877.246288,1661.25369 878.514217,1661.25369 C879.782147,1661.25369 880.810008,1662.28155 880.810008,1663.54948 C880.810008,1664.81741 879.782147,1665.84527 878.514217,1665.84527 C877.246288,1665.84527 876.218427,1664.81741 876.218427,1663.54948 L876.218427,1663.54948 L876.218427,1663.54948 Z M910.655282,1655.51422 C910.655282,1654.24629 911.683142,1653.21843 912.951072,1653.21843 C914.219002,1653.21843 915.246862,1654.24629 915.246862,1655.51422 C915.246862,1656.78215 914.219002,1657.81001 912.951072,1657.81001 C911.683142,1657.81001 910.655282,1656.78215 910.655282,1655.51422 L910.655282,1655.51422 L910.655282,1655.51422 Z M893.436854,1675.02843 C893.436854,1673.7605 894.464715,1672.73264 895.732645,1672.73264 C897.000575,1672.73264 898.028435,1673.7605 898.028435,1675.02843 C898.028435,1676.29636 897.000575,1677.32423 895.732645,1677.32423 C894.464715,1677.32423 893.436854,1676.29636 893.436854,1675.02843 L893.436854,1675.02843 L893.436854,1675.02843 Z" id="icn-4"></path>
        </g>
    </g>
</svg>