<?xml version="1.0" encoding="UTF-8" standalone="no"?>
<svg width="76px" height="40px" viewBox="0 0 76 40" version="1.1" xmlns="http://www.w3.org/2000/svg" xmlns:xlink="http://www.w3.org/1999/xlink">
    <!-- Generator: Sketch 40.2 (33826) - http://www.bohemiancoding.com/sketch -->
    <title>icn-1</title>
    <desc>Created with Sketch.</desc>
    <defs></defs>
    <g id="Landing" stroke="none" stroke-width="1" fill="none" fill-rule="evenodd">
        <g id="22-Landing" transform="translate(-344.000000, -1650.000000)" fill="#1571C3">
            <g id="icn-1" transform="translate(344.000000, 1650.000000)">
                <g id="Group-10">
                    <path d="M2.68250242,32.4297328 C2.31369933,32.8877256 1.72436196,33.1011228 1.12754885,32.9538662 C0.596771431,32.8278246 0.17688413,32.40727 0.0435667972,31.8756489 C-0.0673233209,31.4101685 0.0360910589,30.9384484 0.323906983,30.5690592 C0.611722908,30.2071575 1.03908595,30 1.51130342,30 C1.63714501,30 1.75426491,30.0149752 1.87263077,30.0436778 C2.40340819,30.1697194 2.83077123,30.5977617 2.95661282,31.1218951 C3.06501103,31.5873755 2.96907239,32.0678312 2.68250242,32.4297328 L2.68250242,32.4297328 Z" id="Shape"></path>
                    <path d="M62.4231595,17 L62.5481609,17 C64.7217287,17 66.8006352,16.1569145 68.4013811,14.6248038 C70.0336807,13.0538747 70.956021,10.9637505 70.9984972,8.73654917 C71.0409734,6.42564578 70.1817406,4.24090196 68.5797811,2.58384473 C67.0057346,0.954688169 64.8867791,0.0363921792 62.612482,0 L62.4874806,0 C60.6076055,0 58.7447207,0.653846154 57.2434905,1.8402312 C56.8539231,2.1459255 56.6075611,2.58384473 56.5517353,3.07635222 C56.4946958,3.57007278 56.6318333,4.05408877 56.9388755,4.43741972 C57.2726171,4.85835593 57.8248076,5.10946197 58.4182608,5.10946197 C58.8381684,5.10946197 59.2350174,4.97845012 59.5359916,4.74068788 C60.3891564,4.06743257 61.4328573,3.69744541 62.4668493,3.69623234 L62.566365,3.7022977 C63.8382238,3.71928072 65.0287709,4.23604966 65.9183439,5.15798487 C66.8309754,6.09811617 67.321272,7.34636792 67.2982135,8.67225632 C67.2533101,11.1821036 65.0797424,13.3037677 62.5518017,13.3037677 L62.4668493,13.3037677 C59.7592951,13.258884 57.6646117,11.0984016 57.697379,8.38597117 C57.7046607,7.89103753 57.5153382,7.42400457 57.1646062,7.06857428 C56.8163013,6.71557014 56.3490631,6.5178393 55.8490576,6.51056087 C54.8441921,6.51056087 54.0140858,7.3293849 54.0007362,8.33623519 C53.9400559,13.1145283 57.6379124,16.9199372 62.4231595,17 L62.4231595,17 Z" id="Shape"></path>
                    <path d="M74.1071271,33.6149705 C73.6198239,33.6221866 73.1471033,33.8278449 72.8165635,34.1766222 C72.6026848,34.3882939 72.4471366,34.6504782 72.3693625,34.9295 L72.3645017,34.9355134 C69.173334,36.0323578 65.7597811,36.4725388 61.8127467,36.2945421 C58.8573317,36.1598419 55.7949774,35.6571216 52.7083186,34.8008132 L52.7083186,34.8008132 C52.7204708,33.9036138 52.7204708,33.0052116 52.7204708,32.1284577 C52.7131795,30.9341962 52.7168252,29.9768627 52.732623,29.1157437 C52.7775862,25.8095756 55.5324898,22.9784663 58.8731295,22.8040777 C59.9619666,22.7451463 61.2270106,22.6814043 62.4859785,22.6693775 L63.0401188,22.6633641 C64.5239024,22.6633641 65.7658572,22.7355249 66.8388965,22.8834546 C69.8210463,23.2863524 72.2053078,26.0044098 72.2672841,29.0700418 C72.2733602,29.4091976 72.2794363,29.7471508 72.2794363,30.0947254 C72.2867276,31.0977607 73.1227989,31.9131779 74.1447989,31.9131779 C75.1607228,31.9059619 75.9882876,31.0773152 75.9882876,30.0646584 L75.9700593,29.0002864 C75.8789178,24.1775385 72.0886467,19.8959968 67.3407823,19.2549682 C66.090321,19.0829849 64.6843114,19 63.0461949,19 L62.4495219,19 C61.1188561,19.0180402 59.803988,19.0817823 58.6750487,19.1419163 C53.3438787,19.4257488 49.1051914,23.7830594 49.0249869,29.0628257 C49.0128347,30.0911173 49.0128347,31.1326385 49.0128347,32.1392818 C49.020126,33.4261497 49.0152651,34.4568467 49.0006825,35.3853158 C48.9751629,36.810492 49.6654078,37.7389611 51.053189,38.1442644 C54.6538858,39.1954069 58.2193412,39.8063685 61.6511224,39.9591089 C62.1590843,39.9783518 62.8213792,40 63.449648,40 C67.3067561,40 70.7664874,39.4251188 74.0244921,38.2440868 C75.3612341,37.761812 76.0259594,36.8092893 75.9992246,35.4129775 C75.9785659,34.4207663 75.1303423,33.6149705 74.1071271,33.6149705 L74.1071271,33.6149705 Z" id="Shape"></path>
                    <path d="M14.4566596,17 L14.5902132,17 L14.5914273,17 C19.3677893,16.9199315 23.061153,13.1142511 22.9992328,8.33683009 C22.991948,7.32869478 22.1590593,6.50859916 21.1391955,6.50859916 C20.112047,6.52315707 19.286443,7.3638764 19.2997984,8.3841433 C19.3337938,11.0979804 17.241859,13.258617 14.53922,13.3035039 L14.4566596,13.3035039 C11.923998,13.3035039 9.74707447,11.1829016 9.7021519,8.67166203 C9.67908356,7.34203953 10.1683753,6.09369871 11.0765397,5.1571398 C11.9713488,4.2351388 13.1648322,3.71833298 14.4493749,3.70013559 L14.5027963,3.69528295 C15.5554414,3.69528295 16.6080865,4.06529651 17.4652577,4.73738671 C17.7639321,4.97516592 18.1597364,5.10740027 18.5822514,5.10740027 C19.1771719,5.10740027 19.7320263,4.85627631 20.0659103,4.43409691 C20.3706553,4.04345964 20.5078513,3.55940912 20.4520016,3.07050596 C20.3888672,2.57432384 20.1436142,2.13758653 19.7623794,1.84036252 C18.2605086,0.653892814 16.3944008,0 14.5088669,0 L14.3740992,0 C12.110973,0.0363947763 9.99718392,0.954756298 8.42125158,2.58402912 C6.81860853,4.2412046 5.95900907,6.42610433 6.0015034,8.73595947 C6.0379271,10.9621066 6.95944686,13.0535931 8.59487125,14.6258474 C10.1902296,16.1568543 12.2712373,17 14.4566596,17 L14.4566596,17 Z" id="Shape"></path>
                    <path d="M49.7970425,22.916757 C50.01329,22.501898 50.0579892,22.0309111 49.9250997,21.5940889 C49.7982506,21.1438449 49.4998533,20.7729121 49.0866877,20.5496204 C48.1987441,20.0627711 47.2443558,19.6320499 46.2513087,19.2696584 C45.9130445,19.1439805 45.528873,19 45.081881,19 C44.7448249,19 44.4307224,19.0805315 44.1492382,19.239154 C43.3349879,19.6881779 43.1586073,20.4959328 43.0414229,21.0303688 C42.5895986,23.0399946 40.8052548,24.498102 38.7998312,24.498102 C38.474856,24.498102 38.1619616,24.4627169 37.8671885,24.3919469 C35.9777412,23.9661063 34.8868391,22.853308 34.4301824,20.8888286 C34.3371598,20.5056941 34.145074,19.7064805 33.3151186,19.2574566 C32.7871848,18.9633948 32.1396504,18.9280098 31.4969484,19.1598427 C30.2030878,19.6320499 28.9865447,20.1921095 27.8847698,20.8241594 C27.4764366,21.0559924 27.1864958,21.4305857 27.0668953,21.8783894 C26.9388381,22.3322939 26.9956182,22.8081616 27.2287789,23.2144794 C27.5271762,23.7452549 28.1288033,24.0881236 28.7642568,24.0881236 C29.0578218,24.0881236 29.3429302,24.0149132 29.5881718,23.8745933 C30.1813422,23.535385 30.8010906,23.225461 31.4317118,22.9521421 L31.4317118,22.9521421 L31.4317118,22.9533623 C32.399389,25.5084056 34.3613215,27.1898048 37.106094,27.8145336 C37.6606057,27.9377711 38.2284063,28 38.7913746,28 C41.9734745,28 44.8970438,25.9757321 46.0676796,22.9619035 L46.0688876,22.958243 C46.576284,23.1864154 47.0256921,23.4072668 47.4400658,23.6329989 C47.6792669,23.7635575 47.9547107,23.8318872 48.2361948,23.8318872 C48.8873534,23.8355477 49.4986452,23.4755965 49.7970425,22.916757 L49.7970425,22.916757 Z" id="Shape"></path>
                    <path d="M45.2714643,32.0104131 C44.4073026,32.0052065 43.5322482,32.0052065 42.6862412,32.0052065 L33.9284349,32 C32.8355246,32 31.7825545,32 30.7211122,32.0052065 C29.764967,32.0177022 28.9927889,32.6924679 29.0000508,33.5098924 C29.0000508,34.3314821 29.784332,35 30.7501597,35 C31.7970782,34.9947935 32.8427864,34.9895869 33.9344864,34.9895869 L42.6862412,34.9947935 C43.4317924,34.9947935 44.2051808,34.9947935 44.9676764,34.9989587 L44.9676764,34.9989587 L45.5583078,34.9781326 L45.5583078,34.9781326 C46.3764777,34.8562999 46.9997876,34.2335994 46.9997876,33.5140576 C47.0070494,33.1152378 46.8279235,32.7382853 46.4938778,32.4508851 C46.1634631,32.1666088 45.7289616,32.0104131 45.2714643,32.0104131 L45.2714643,32.0104131 Z" id="Shape"></path>
                    <path d="M38.9340083,17 C36.6589108,16.9903904 35.074489,16.6384384 33.5868799,15.824024 C32.2161543,15.0660661 31.1618408,14.0198198 30.4440104,12.7105105 C29.8607731,11.6546547 29.851328,10.4198198 30.4203975,9.32552553 L30.6647905,8.86666667 C30.9823832,8.27447447 31.2409438,7.78798799 31.4546401,7.30870871 C31.4853368,7.23663664 31.5384657,7.04204204 31.5668011,6.93753754 L31.5974978,6.83543544 C31.6588912,6.60600601 31.732091,6.35495495 31.827723,6.09309309 C32.4345731,4.43063063 33.3483901,3.17417417 34.6246643,2.25045045 C35.7262035,1.43603604 37.0626904,1 38.4759191,1 C38.657738,1 38.8572666,1.00840841 39.0839499,1.02882883 C40.6849006,1.17057057 42.1748711,1.87927928 43.2823134,3.02402402 C43.9517376,3.71711712 43.9434731,4.83063063 43.2622425,5.51291291 C42.5821926,6.1951952 41.4877373,6.18678679 40.8159519,5.49249249 C40.2858436,4.94474474 39.5644712,4.6048048 38.786428,4.53513514 C38.6730864,4.52552553 38.5703705,4.51951952 38.4759191,4.51951952 C37.7982305,4.51951952 37.1654063,4.72372372 36.6447431,5.10810811 C35.9280933,5.62702703 35.4322236,6.32492492 35.0709471,7.31471471 C35.0107343,7.48288288 34.9646893,7.64744745 34.9245474,7.7951952 L34.8903088,7.90810811 C34.8194703,8.16756757 34.7321028,8.48228228 34.5951483,8.78018018 C34.3389489,9.35195195 34.0390658,9.92012012 33.7014021,10.5471471 L33.467635,10.9867868 C33.8560663,11.7123123 34.4522906,12.2948949 35.2303338,12.7273273 C36.2031829,13.2606607 37.2338836,13.4720721 38.8974084,13.4792793 C39.7108708,13.4792793 40.68372,13.2498498 41.4688471,12.8798799 C42.4003737,12.439039 43.0780623,11.818018 43.5396934,10.9855856 C43.0391012,10.157958 43.287036,9.07567568 44.1004985,8.56636637 C44.9151416,8.05705706 45.9741776,8.31651652 46.4759505,9.14414414 C47.1453747,10.2504505 47.1748907,11.5813814 46.5562342,12.7081081 C45.7380492,14.1891892 44.5160845,15.3195195 42.9245789,16.0726727 C41.6754594,16.6624625 40.2209083,17 38.9340083,17 L38.9340083,17 Z" id="Shape"></path>
                    <path d="M26.9689392,29.0596425 C26.8948106,23.7765555 22.6597582,19.4199037 17.3273594,19.1419732 L17.0259841,19.1239257 C16.0246403,19.0770024 14.7766062,19.0192506 13.5468005,19 L12.9476955,19 C11.3083596,19 9.90356173,19.0830182 8.65431242,19.2550705 C5.90061696,19.6256446 3.39968789,21.2078034 1.79802389,23.587659 C1.06767483,24.5044689 0.546344136,25.4272946 0.247399262,26.3320729 C-0.0576217266,27.2464765 0.447911068,28.2487109 1.37998716,28.567549 C1.55497928,28.6204881 1.73604752,28.6469577 1.91833098,28.6469577 C2.70093463,28.6469577 3.38875088,28.1632864 3.62936505,27.4437951 C3.73873513,27.1129254 3.91251202,26.7688209 4.14583485,26.4223101 C4.42898183,26.0012032 4.80448575,25.5548298 5.22495293,25.1385356 L5.83134924,24.5947061 C5.99540435,24.461155 6.15459858,24.3227913 6.2979949,24.1916466 L6.3879214,24.12066 C6.44868256,24.068924 6.47784791,24.0460639 6.52402639,24.0195944 L6.56898964,23.9834995 C6.58357232,23.9702647 6.61395289,23.9437951 6.67106838,23.8932623 L6.79016024,23.7693365 C7.51321796,23.3049158 8.33106308,22.9969062 9.1537691,22.8801994 C10.2559764,22.7358199 11.4942887,22.6648333 12.9379737,22.6648333 L13.5018372,22.6708491 C14.7437952,22.6828807 15.96874,22.744242 16.9591468,22.7947748 L17.1256324,22.8007906 C20.4650654,22.981265 23.2199761,25.8135098 23.2661545,29.1137848 C23.2770915,30.0173599 23.2783068,31.0075627 23.2722307,32.1421451 C23.2722307,33.0120316 23.2722307,33.9168099 23.2843829,34.8095565 C20.2086533,35.671021 17.1475064,36.1727398 14.1860078,36.3026813 C10.253546,36.4807494 6.83755394,36.0452045 3.6317955,34.9479202 C3.552806,34.6711928 3.39725744,34.4040908 3.19431519,34.1971468 C2.85040707,33.836198 2.39226797,33.6376762 1.86364594,33.6232382 C0.850149902,33.6232382 0.0140764342,34.428154 0.00070898048,35.4159505 C-0.0248107039,36.8224476 0.638701089,37.7789618 1.97544646,38.2590237 C5.22130726,39.4309041 8.7272258,40 12.6949291,40 C13.2344881,40 13.7910603,39.9891715 14.3500629,39.9675146 C17.82074,39.807494 21.383774,39.1974905 24.9419471,38.1531454 C26.3321623,37.7464765 27.0248395,36.8200413 26.9993198,35.3979031 C26.9750153,34.3138536 26.9750153,33.2117566 26.9750153,32.1457546 C26.9823067,30.9762805 26.9798762,29.9680303 26.9689392,29.0596425 L26.9689392,29.0596425 Z" id="Shape"></path>
                </g>
            </g>
        </g>
    </g>
</svg>