<?xml version="1.0" encoding="UTF-8" standalone="no"?>
<svg width="85px" height="72px" viewBox="0 0 85 72" version="1.1" xmlns="http://www.w3.org/2000/svg" xmlns:xlink="http://www.w3.org/1999/xlink">
    <!-- Generator: Sketch 40.2 (33826) - http://www.bohemiancoding.com/sketch -->
    <title>icn-6</title>
    <desc>Created with Sketch.</desc>
    <defs>
        <path d="M52.8261719,50.3359375 C53.5068359,50.3359375 54.1708984,50.0869141 54.6855469,49.5722656 C55.7314453,48.5429688 55.7480469,46.8662109 54.71875,45.8203125 L42.7158203,33.6347656 L42.7158203,19.3740234 L43.7783203,19.3740234 C47.3144531,19.3740234 50.203125,16.4853516 50.203125,12.9492188 L50.203125,6.45800781 C50.203125,2.921875 47.3144531,0.033203125 43.7783203,0.033203125 L22.8603516,0.033203125 C19.3242187,0.033203125 16.4355469,2.921875 16.4355469,6.45800781 L16.4355469,12.9492188 C16.4355469,16.4853516 19.3242187,19.3740234 22.8603516,19.3740234 L23.9228516,19.3740234 L23.9228516,33.9003906 L3.66894531,54.8349609 C3.65234375,54.8515625 3.63574219,54.8515625 3.63574219,54.8681641 C2.90527344,55.4326172 2.27441406,56.0966797 1.75976563,56.8271484 L1.7265625,56.8603516 C1.44433594,57.1591797 1.24511719,57.5078125 1.11230469,57.8730469 C0.415039062,59.2011719 0.033203125,60.6787109 0.033203125,62.2392578 C0.033203125,67.3857422 4.21679688,71.5693359 9.36328125,71.5693359 L52.6767578,71.5693359 C54.1376953,71.5693359 55.3330078,70.3740234 55.3330078,68.9130859 C55.3330078,67.4521484 54.1376953,66.2568359 52.6767578,66.2568359 L9.34667969,66.2568359 C7.13867188,66.2568359 5.32910156,64.4638672 5.32910156,62.2392578 C5.32910156,61.4921875 5.52832031,60.7783203 5.91015625,60.1640625 L28.4716797,36.8222656 C28.953125,36.3242188 29.21875,35.6601562 29.21875,34.9794922 L29.21875,16.9667969 C29.21875,16.5019531 29.1025391,16.0703125 28.9033203,15.7050781 C28.5048828,14.7421875 27.5585938,14.0615234 26.4462891,14.0615234 L22.8603516,14.0615234 C22.2626953,14.0615234 21.7480469,13.546875 21.7480469,12.9492188 L21.7480469,6.45800781 C21.7480469,5.86035156 22.2626953,5.34570313 22.8603516,5.34570313 L43.7783203,5.34570313 C44.3759766,5.34570313 44.890625,5.86035156 44.890625,6.45800781 L44.890625,12.9492188 C44.890625,13.546875 44.3759766,14.0615234 43.7783203,14.0615234 L40.0595703,14.0615234 C38.5986328,14.0615234 37.4033203,15.2568359 37.4033203,16.7177734 L37.4033203,16.734375 L37.4033203,16.7509766 L37.4033203,34.7304688 C37.4033203,35.4277344 37.6855469,36.0917969 38.1669922,36.5898438 L50.9335938,49.5556641 C51.4482422,50.0703125 52.1289062,50.3359375 52.8261719,50.3359375 L52.8261719,50.3359375 Z" id="path-1"></path>
        <mask id="mask-2" maskContentUnits="userSpaceOnUse" maskUnits="objectBoundingBox" x="0" y="0" width="55.4472556" height="71.5361328" fill="white">
            <use xlink:href="#path-1"></use>
        </mask>
        <path d="M21.4824219,55.3330078 C20.0214844,55.3330078 18.8261719,56.5283203 18.8261719,57.9892578 C18.8261719,59.4501953 20.0214844,60.6455078 21.4824219,60.6455078 L45.6542969,60.6455078 C47.1152344,60.6455078 48.3105469,59.4501953 48.3105469,57.9892578 C48.3105469,56.5283203 47.1152344,55.3330078 45.6542969,55.3330078 L21.4824219,55.3330078 L21.4824219,55.3330078 Z" id="path-3"></path>
        <mask id="mask-4" maskContentUnits="userSpaceOnUse" maskUnits="objectBoundingBox" x="0" y="0" width="29.484375" height="5.3125" fill="white">
            <use xlink:href="#path-3"></use>
        </mask>
        <path d="M82.34375,6.98925781 L57.7734375,6.98925781 C56.3125,6.98925781 55.1171875,8.18457031 55.1171875,9.64550781 C55.1171875,11.1064453 56.3125,12.3017578 57.7734375,12.3017578 L60.6621094,12.3017578 L60.6621094,64.7128906 C60.6621094,68.4814453 63.7333984,71.5527344 67.5019531,71.5527344 L72.6318359,71.5527344 C76.4003906,71.5527344 79.4716797,68.4814453 79.4716797,64.7128906 L79.4716797,12.3017578 L82.34375,12.3017578 C83.8046875,12.3017578 85,11.1064453 85,9.64550781 C85,8.18457031 83.8046875,6.98925781 82.34375,6.98925781 L82.34375,6.98925781 Z M74.1425781,64.7128906 C74.1425781,65.5429687 73.4453125,66.2402344 72.6152344,66.2402344 L67.4853516,66.2402344 C66.6552734,66.2402344 65.9580078,65.5429687 65.9580078,64.7128906 L65.9580078,12.3017578 L74.1425781,12.3017578 L74.1425781,64.7128906 L74.1425781,64.7128906 Z" id="path-5"></path>
        <mask id="mask-6" maskContentUnits="userSpaceOnUse" maskUnits="objectBoundingBox" x="0" y="0" width="29.8828125" height="64.5634766" fill="white">
            <use xlink:href="#path-5"></use>
        </mask>
    </defs>
    <g id="Solutions" stroke="none" stroke-width="1" fill="none" fill-rule="evenodd">
        <g id="6-Brokers-Developers" transform="translate(-1049.000000, -2811.000000)" stroke="#FFFFFF" stroke-width="2" fill="#1B84E3">
            <g id="icn-6" transform="translate(1049.000000, 2811.000000)">
                <use id="Shape" mask="url(#mask-2)" xlink:href="#path-1"></use>
                <use id="Shape" mask="url(#mask-4)" xlink:href="#path-3"></use>
                <use id="Shape" mask="url(#mask-6)" xlink:href="#path-5"></use>
            </g>
        </g>
    </g>
</svg>