<?xml version="1.0" encoding="UTF-8" standalone="no"?>
<svg width="92px" height="59px" viewBox="0 0 92 59" version="1.1" xmlns="http://www.w3.org/2000/svg" xmlns:xlink="http://www.w3.org/1999/xlink">
    <!-- Generator: Sketch 40.2 (33826) - http://www.bohemiancoding.com/sketch -->
    <title>icn-2</title>
    <desc>Created with Sketch.</desc>
    <defs></defs>
    <g id="Solutions" stroke="none" stroke-width="1" fill="none" fill-rule="evenodd">
        <g id="6-Brokers-Developers" transform="translate(-310.000000, -1972.000000)" fill="#1B84E3">
            <g id="icn-2" transform="translate(310.000000, 1972.000000)">
                <path d="M79,3 L61.272211,7.47670039 L65.6055124,11.9431284 L45.5875111,29.724607 L28.213627,21.6197043 C27.3441193,21.2139455 26.331219,21.276607 25.5176444,21.787144 L12.3479068,30.0368872 C11.0105936,30.8740856 10.5987215,32.6491518 11.4285675,33.9999689 C12.2584136,35.3497588 14.0137006,35.7657899 15.3520307,34.9285914 L27.2180152,27.4944747 L44.8837691,35.7349728 C45.2661491,35.9137121 45.6729364,36 46.0776897,36 C46.7570245,36 47.4292404,35.7544903 47.9600978,35.2829883 L69.6011803,16.0592685 L73.6832905,20.2668327 L79,3 L79,3 Z" id="Shape"></path>
                <path d="M90.4442525,7.65665931 C90.2571949,7.4736316 89.962809,7.18688818 89.7450861,6.96827175 C89.7123766,6.86557287 89.6786449,6.7537226 89.643891,6.64187233 C89.3709708,5.76638977 89.2339996,5.32712326 88.9304142,4.87463808 C88.2629351,3.87815387 87.1600104,3.18264856 85.9824669,3.01588998 C85.8414071,2.99555356 85.699325,2.98640218 85.5582651,2.98640218 C85.250591,2.98640218 84.9470056,3.03317593 84.6567084,3.12468978 C84.5616463,3.1155384 84.4655621,3.11147112 84.3694778,3.11147112 C84.1527771,3.11147112 83.9350542,3.13485799 83.7193757,3.18264856 C83.0099876,3.33923894 82.4007724,3.75206811 81.9765706,4.31640356 L81.0382157,7.3160244 C81.0177722,7.46142975 80.9963066,7.6068351 80.9768853,7.74715635 C80.9094218,8.23624707 80.821515,8.87989453 80.7090759,9.22764718 C80.6313908,9.2978078 80.5036191,9.39338894 80.3584705,9.4899869 L79.2841666,12.9237902 C80.2378541,12.6797532 81.1383886,12.4865573 81.5523687,12.2598063 C82.3660185,11.8235902 83.053941,11.201296 83.3043734,10.7660968 C83.9922959,9.45846546 83.8675908,7.46651386 84.3684556,6.09685647 C84.5565355,6.28395147 84.7435931,6.47002964 84.9940256,6.59509858 C85.3691631,6.47104646 85.5572429,6.28395147 85.5572429,5.97280436 C85.9957552,6.03483042 86.3085402,6.34597753 86.4332453,6.53307252 C86.5579504,6.72016752 86.9964627,8.33792913 87.12219,8.52502413 C87.2468951,8.77414518 88.9999219,10.3929236 88.9999219,10.4549497 C88.9375694,10.9531918 86.0591299,13.1322384 85.4959126,13.7545326 C85.120775,14.1277058 84.9326952,14.0656797 84.7446153,15.0621639 C84.6199102,15.8095271 84.6822628,16.1827003 84.9950477,16.8670205 C85.1831276,17.3032366 85.746345,17.2401937 86.6846999,17.3652626 C86.9974848,18.1746519 86.4342675,18.4237729 85.4325378,18.922015 C84.4308082,19.4202571 82.0532335,20.0425514 81.7404486,21.5362609 C81.7476038,21.5291431 81.7537368,21.5260927 81.7588477,21.5260927 C82.0552779,21.5260927 80.4269561,31.3119744 80.4893087,31.4339928 C80.4269561,31.994261 80.7397411,33.3018923 80.1141712,34.0482387 C79.8013862,34.7956018 78.9253839,34.8576279 78.2364392,35.4799221 C78.0483593,35.7290432 77.9236542,35.9781642 77.7979269,36.2272853 C77.6732218,36.6004584 77.4227894,36.8495795 76.9219246,36.8495795 C76.2963546,37.4098476 75.9201949,37.8460637 75.3569776,38.59241 C74.2305428,40.3352406 72.3528108,42.3271922 72.9794029,44.8173859 C73.2921879,46.0629912 74.2305428,46.8093375 74.7937602,47.9298738 C75.2322724,48.8012891 75.4193301,50.0468944 75.9201949,51.2294568 C76.4210598,52.4120192 76.8585498,53.4085034 76.4834123,54.3419447 C76.2953325,54.7781608 76.4834123,54.9642389 75.7954898,55.275386 C75.7801572,55.2835206 75.7607359,55.2865711 75.7372259,55.2865711 C75.3723101,55.2865711 74.0680173,54.4243072 73.4802677,53.7816765 C73.1674828,53.4705294 71.728263,51.664656 71.5401832,50.9803357 C71.4154781,50.3580415 71.4778306,48.6152109 70.788886,47.8058217 C70.6641808,47.6817696 70.1009635,47.8058217 69.7871563,47.5567007 C69.2862915,47.1204846 69.0358591,46.3121122 68.285584,46.1870433 C68.1639454,46.1870433 66.2003509,47.3096133 66.0991558,47.3096133 C66.0960892,47.3096133 66.0950671,47.3085964 66.0950671,47.3075796 C65.7424174,46.2846581 64.4105258,45.9887633 63.012193,45.9887633 C61.4319134,45.9887633 59.7678156,46.3660037 59.3364585,46.4981904 C58.5320083,46.744261 58.5228087,49.3625741 56.5888572,49.3625741 C56.5663694,49.3625741 56.5438816,49.3625741 56.5203716,49.3615573 C56.0195068,49.3615573 55.0187993,49.1744623 55.4562894,48.677237 C55.3101187,48.4830243 54.7816552,48.3264339 54.3482538,48.3264339 C54.2266152,48.3264339 54.1121318,48.3386357 54.0170697,48.3660899 C53.1410674,48.864332 50.074548,48.1789949 48.3225434,49.3625741 C47.5088936,49.9228423 46.6952438,50.6702054 45.9449687,51.2304736 C45.5064565,51.5416207 45.3193988,51.4795947 45.0066138,51.8527678 C44.818534,52.0398628 44.4433964,53.0973563 44.3810439,53.3464773 C44.1306115,53.9687715 44.505749,55.2143768 44.3186913,55.649576 C44.1827423,55.9190335 44.0232833,56.0135978 43.8311147,56.0135978 C43.578638,56.0135978 43.2699417,55.8529402 42.8794716,55.7116021 C42.1281744,55.462481 41.564957,55.21336 41.0017396,54.5290397 C40.6266021,54.0928237 39.1873823,51.2914828 39.1240076,51.2294568 C38.4984377,50.3580415 38.0599254,48.6152109 37.1215705,47.9918999 C36.782209,47.7509134 36.4612467,47.6593996 36.1586834,47.6593996 C35.6813286,47.6593996 35.2509937,47.8881842 34.868701,48.1169688 C34.0724281,48.6589342 34.0898051,49.1734455 33.7187562,49.1734455 C33.5357873,49.1734455 33.2577562,49.0483765 32.7405366,48.7402799 C30.6123722,47.4326486 30.2995872,44.0710396 28.1100924,43.0135461 C27.9220126,42.9515201 25.6067905,42.7644251 25.6067905,42.5773301 C25.231653,42.7013822 25.1059257,43.0135461 25.2940055,43.5738143 C23.4162735,43.0135461 21.788974,43.2006411 20.413129,42.8264511 C19.4113993,42.266183 13.4664406,38.4683579 13.1536556,38.4683579 C12.5280857,38.4063319 11.7767884,38.530384 11.1512185,38.2812629 C9.77435133,37.6589687 10.776081,38.0941679 10.1494889,36.9736316 C10.073848,36.8231421 9.98491899,36.6726527 9.89803427,36.5221632 C9.47587678,36.1500069 9.09767273,35.7209086 8.78999863,35.2277506 C8.61009616,34.9399903 8.46290324,34.6390114 8.33717595,34.3309148 C7.39677669,33.7106542 6.08226208,33.4320454 5.51802253,32.6155384 C6.33167232,32.6155384 4.45394033,29.0668344 4.45394033,28.6316352 C4.45394033,28.1333931 4.70437274,27.7602199 4.64202018,27.2619778 C4.64202018,27.0128567 5.01715771,25.7052254 4.20350792,25.0829312 C3.82837039,24.7717841 3.7026431,24.460637 3.51558542,24.0244209 C3.07707316,23.0909796 3.07707316,21.9074004 3.0147206,20.911933 C2.89001548,18.9199814 3.89072295,17.550324 4.14115536,15.7454674 C4.32923521,14.2517579 5.39229524,13.0061526 6.14359247,11.4504171 C6.45637744,10.8281228 6.58210473,10.0187336 6.76916241,9.45846546 C6.89386753,8.83617124 7.27002723,4.04287881 7.4570849,3.35754171 L7.4570849,3.35754171 C8.18487215,3.82121191 8.75115605,3.98695367 9.18557962,3.98695367 C10.2097971,3.98695367 10.5041829,3.07181511 10.4602295,2.98436854 C22.7263067,6.53307252 23.1014442,6.09685647 29.5472678,6.90624569 C32.6761397,7.27941886 35.8683863,7.59056597 38.9972581,7.77766097 C40.6869103,7.90171308 45.3807292,8.08880808 46.0062991,8.08880808 C46.5071639,8.08880808 46.9579423,8.18743968 47.3044589,8.18743968 C47.7378603,8.18743968 48.0087362,8.03389977 48.0087362,7.34246174 C48.5719536,7.52955674 48.3215212,7.96475596 48.5719536,8.0898249 C48.5719536,8.52604095 48.6966587,8.71211912 49.0728184,8.71211912 C49.3232508,8.77414518 49.6360358,8.83617124 49.8864682,8.89921412 C50.387333,9.08630911 51.012903,9.14833517 51.6384729,9.33543017 C52.3897701,9.52252516 52.5768278,9.77164622 53.3904776,9.89569833 C53.64091,9.77164622 53.8289899,9.64657728 54.0784001,9.52252516 C54.1407526,9.64657728 54.2664799,9.77164622 54.3911851,9.83367227 C54.9922228,9.83367227 55.2324335,9.91298428 55.6893449,9.91298428 C55.8038283,9.91298428 55.9315999,9.90790018 56.0808372,9.89569833 C54.7663226,10.7050875 53.6398878,11.7005549 52.4511005,12.6350131 C52.6248699,12.7499138 52.7812624,12.7956708 52.9284553,12.7956708 C53.4180763,12.7956708 53.7993468,12.295395 54.3278103,12.1998139 C54.5782427,12.3869089 54.5158902,12.6360299 54.1397305,12.8841342 C54.2828347,12.9217565 54.4198059,12.9390425 54.5537106,12.9390425 C56.0103073,12.9390425 56.9435513,10.8698125 58.2519329,10.8698125 C58.3991258,10.8698125 58.5504074,10.8962498 58.7078221,10.9542086 C58.1446047,11.3904247 57.7694672,11.6395457 57.5813873,12.385892 C57.8502188,12.1357542 58.0526091,12.0442403 58.2253564,12.0442403 C58.6536469,12.0442403 58.8969241,12.6075589 59.5214719,12.6970392 C59.6308444,12.7183924 59.7412391,12.7285606 59.8536781,12.7285606 C59.9937158,12.7285606 60.1388644,12.6939887 60.2829908,12.6665345 L61.4308912,11.6629326 L59.2914829,9.49202054 C58.8570593,9.05173721 58.6004939,8.49350269 58.4992988,7.90578037 C58.4328575,7.90171308 58.3674384,7.8874776 58.3009972,7.88646077 C57.7664006,7.30280574 57.0028373,6.93064939 56.150345,6.91234662 C56.1278572,6.91132979 56.1043472,6.91132979 56.0808372,6.91132979 C56.044039,6.91132979 56.0072407,6.91234662 55.9694203,6.91336344 C55.914223,6.91539708 55.8600478,6.91844754 55.8058726,6.92353164 C55.7619192,6.9265821 55.7230766,6.92861575 55.6873006,6.92861575 C55.6351697,6.92861575 55.5901941,6.92556528 55.5472628,6.92048118 C55.382693,6.8279505 55.2079014,6.75067214 55.0259546,6.69067972 C54.7172583,6.58798084 54.3973181,6.5371398 54.0773779,6.5371398 C53.7635708,6.5371398 53.4507858,6.58594719 53.1502669,6.68356197 C52.9519653,6.60933407 52.7148212,6.53002206 52.4327014,6.45681097 C52.052453,6.34699435 51.6998033,6.27276644 51.4135948,6.21379085 C51.2531136,6.18023576 51.0364129,6.13549566 50.9474839,6.1080415 C50.3893774,5.12986006 49.513375,4.69669447 48.9552685,4.51163312 C48.6455501,4.40893423 48.3256099,4.3580932 48.0066919,4.3580932 C47.3852106,4.3580932 46.7698624,4.5502723 46.2526428,4.92141183 C46.1718911,4.97937061 46.0952282,5.04037984 46.0216317,5.10545636 L46.0042548,5.10545636 C45.4727247,5.10545636 40.8688571,4.92446229 39.2170254,4.80244382 C36.3436968,4.63060113 33.3109092,4.35097546 29.9029841,3.94424721 C28.757128,3.79985868 27.7870857,3.69410933 26.9100612,3.59751137 C23.0615795,3.17553081 21.1306945,2.96403212 11.2963671,0.118968013 C11.0193582,0.0386391838 10.7382606,0 10.4592073,0 C9.80195,0 9.16002529,0.215565973 8.63565049,0.614159658 C8.26051296,0.45451882 7.85879893,0.37317317 7.45504056,0.37317317 C7.09114693,0.37317317 6.72623114,0.43926651 6.37767011,0.572470012 C5.48633516,0.913104922 4.81170092,1.6564008 4.56024633,2.57255618 C4.40896471,3.1257066 4.30265871,4.05914794 4.03893805,6.77609265 C3.97045245,7.47973252 3.88050122,8.41114022 3.83245908,8.79346477 C3.77828391,8.97750931 3.72615308,9.17578933 3.67402225,9.38017027 C3.61166969,9.62420722 3.51762977,9.99229629 3.45629938,10.1163484 C3.2426652,10.5586654 3.00552104,10.96336 2.75406646,11.3914415 C2.10192002,12.5038432 1.36288887,13.763684 1.1604986,15.3763615 C1.1032569,15.7861402 0.939709206,16.26913 0.750607182,16.8273645 C0.37444748,17.9397663 -0.0947299736,19.3236592 0.0166868946,21.099028 L0.0381525297,21.4925376 C0.0953942234,22.5764684 0.165924167,23.9227389 0.769006298,25.2374879 C0.955041802,25.6696367 1.198319,26.2207535 1.67158515,26.7779712 C1.65318603,26.9162588 1.63785343,27.0769164 1.63785343,27.2629946 L1.63785343,27.2985833 C1.56527914,27.5832931 1.44977358,28.048997 1.44977358,28.632652 C1.44977358,29.3718806 1.6848734,29.9321488 2.11316393,30.9489694 C2.22866949,31.2224941 2.4218602,31.6841307 2.56598661,32.0644216 C2.42083803,32.8341548 2.58234138,33.6425272 3.04231928,34.3075279 C3.86823514,35.5022922 5.07235506,36.0503585 5.95142392,36.449969 C6.09759468,36.5160623 6.28567453,36.6014753 6.44104484,36.6797704 C6.61788079,36.9776989 6.8110715,37.2400386 6.98075224,37.4637391 C7.06457043,37.6152454 7.15247732,37.7677685 7.24038421,37.918258 C7.286382,37.9965532 7.33237979,38.0738315 7.37633323,38.1521267 C7.54396962,39.9315628 9.16309181,40.6636737 9.90416731,40.9992245 C9.94607641,41.0185441 9.98900768,41.03583 10.0309168,41.053116 C10.93554,41.4130705 11.7962097,41.4313732 12.394181,41.43239 C13.2722277,41.9387667 15.128494,43.0908245 16.3172814,43.8280194 C17.7227694,44.6994347 18.5364192,45.2037777 18.9360888,45.4274783 C19.1507452,45.5474631 19.379712,45.6410106 19.6178783,45.7060871 C20.4949028,45.9440232 21.3310404,46.0141838 22.1406015,46.0812939 C22.9338078,46.1473873 23.6830607,46.2104302 24.4261806,46.4320971 C24.7103447,46.5164932 25.0006419,46.5581828 25.2878725,46.5581828 C25.9246863,46.5581828 26.5502563,46.3558355 27.0674759,45.9765614 C27.32813,46.3273645 27.6480702,46.9161037 27.8647709,47.3136805 C28.5700703,48.6121605 29.448117,50.2278885 31.1592348,51.279281 C31.9197316,51.7337998 32.7149823,52.157814 33.7136454,52.157814 C34.5058295,52.157814 35.2090846,51.9056425 35.8131889,51.4074004 C36.0370448,51.8853061 36.2731668,52.3723632 36.5890183,52.838067 C36.6503487,52.9489005 36.7443886,53.1258272 36.8598942,53.3403764 C37.9341981,55.3414794 38.3246682,56.0044464 38.6906062,56.4396457 C39.7117571,57.6720323 40.8249036,58.1753585 41.8787641,58.5292121 C41.9421388,58.5525989 42.0034692,58.5770026 42.0607109,58.6003895 C42.4603806,58.7590135 43.0634627,59 43.8249817,59 C45.1762945,59 46.3620153,58.2475527 46.9957627,56.9856783 C47.0223392,56.9338205 47.0468713,56.879929 47.0703813,56.8270543 C47.4547184,55.9342858 47.3790776,55.0852406 47.3177472,54.402954 C47.3085476,54.3022887 47.2962816,54.1670516 47.2901485,54.0653695 C47.3075255,54.0124948 47.3300133,53.9464015 47.3555676,53.875224 C47.4577849,53.813198 47.5671574,53.7420205 47.6836852,53.6596581 C47.7031065,53.6464394 47.7215056,53.6322039 47.7399047,53.6189852 C48.0915322,53.3566455 48.4554259,53.0597339 48.8254525,52.7546877 C49.253743,52.4028678 49.6585236,52.0703674 50.0254837,51.8171791 C50.3464461,51.6117813 51.6231403,51.5873776 52.2364442,51.5751758 C52.7281094,51.5660244 53.2085308,51.556873 53.6756639,51.5050152 C54.3962959,52.038846 55.3642939,52.3388081 56.4713073,52.3469426 C56.5091277,52.3479595 56.5469481,52.3479595 56.5847685,52.3479595 C59.3609907,52.3479595 60.6059975,50.315335 61.1661484,49.1490418 C61.7048336,49.0575279 62.3825344,48.9741486 63.0070821,48.9741486 C63.2810245,48.9741486 63.4834148,48.9904178 63.6254969,49.0097374 C64.1682708,49.7865883 65.072894,50.2960154 66.0940449,50.2960154 C66.7175705,50.2960154 67.1049741,50.1648456 67.8061848,49.8028574 L67.807207,49.8038743 C67.8399166,49.8323452 67.8746704,49.8608162 67.9084022,49.8882704 C68.0842159,50.0285916 68.2630962,50.1434923 68.4409543,50.2390735 C68.4532204,50.3671929 68.4634422,50.4851441 68.4716195,50.5746243 C68.5012626,50.9183097 68.5288612,51.2426754 68.5932581,51.5660244 C68.6065464,51.6331346 68.6229012,51.7002447 68.6402781,51.7663381 C69.0491473,53.2559803 70.8236398,55.303857 71.2570412,55.7878636 L71.2539747,55.7898973 C71.2560191,55.7919309 71.279529,55.8163346 71.3214381,55.8590411 C71.3408594,55.8793775 71.3510812,55.8915793 71.3521033,55.8925962 L71.3531255,55.8915793 C71.822303,56.3583 73.8646048,58.2719564 75.7300707,58.2719564 C76.1818712,58.2719564 76.6306052,58.1753585 77.036408,57.9902971 C78.2773261,57.4279953 78.9948916,56.5952192 79.2933662,55.3740176 C80.0681734,53.3515614 79.2841666,51.4999311 78.7097053,50.1445092 L78.6790401,50.0723149 C78.5073151,49.6676203 78.3734104,49.2008996 78.2303061,48.7077416 C78.0299602,48.0132531 77.8224591,47.2953778 77.4708315,46.596822 C77.1365809,45.9318213 76.7450886,45.3959568 76.4292371,44.9658417 C76.1726717,44.6150386 75.9304167,44.2835551 75.8823745,44.0954433 C75.7065608,43.393837 76.2871551,42.4949676 77.1938226,41.2036054 C77.408479,40.8975424 77.6180245,40.5975803 77.810193,40.3057528 C78.0565367,39.981387 78.2395057,39.7556528 78.4224747,39.556356 C79.3311866,39.1964015 80.0589738,38.5059803 80.4801091,37.5725389 C80.4841978,37.5705053 80.4872644,37.5684717 80.491353,37.566438 C81.0504817,37.2756273 82.0430118,36.7600993 82.6767591,35.6090583 C83.6048923,34.2485523 83.5272072,32.725355 83.4832537,31.8763098 C83.479165,31.7980146 83.4740542,31.7248035 83.473032,31.659727 C83.4750763,31.6261719 83.4771207,31.5936337 83.479165,31.5600786 C83.5220963,31.2102923 83.6866662,30.1172101 83.8328369,29.1441128 C84.3377904,25.7916552 84.6403537,23.7814008 84.7405266,22.4839377 C85.0757994,22.3090445 85.5439547,22.1178823 85.811764,22.0080656 C86.1470368,21.8707948 86.4639105,21.7416586 86.7664737,21.5911692 L86.8554028,21.5474459 C88.6360283,20.6638288 90.5362481,19.0348821 89.4762546,16.2945505 C89.2810195,15.7902075 88.9559685,15.3570419 88.5460771,15.0316593 C88.6063853,14.9808183 88.6646492,14.9309941 88.7198465,14.8842203 C90.760104,13.1596925 91.7843215,12.2933614 91.9683126,10.8250724 C91.9918226,10.7000034 92,10.5759513 92,10.4518992 C92,9.17273887 91.3468314,8.53620915 90.4442525,7.65665931 L90.4442525,7.65665931 Z" id="Shape"></path>
            </g>
        </g>
    </g>
</svg>