<?xml version="1.0" encoding="UTF-8" standalone="no"?>
<svg width="76px" height="70px" viewBox="0 0 76 70" version="1.1" xmlns="http://www.w3.org/2000/svg" xmlns:xlink="http://www.w3.org/1999/xlink">
    <!-- Generator: Sketch 40.2 (33826) - http://www.bohemiancoding.com/sketch -->
    <title>icn-1</title>
    <desc>Created with Sketch.</desc>
    <defs>
        <path d="M334.285714,1746.99793 L328.463768,1746.99793 L328.463768,1742.19876 L334.285714,1742.19876 L334.285714,1746.99793 L334.285714,1746.99793 Z M344.513458,1732.04969 L338.691511,1732.04969 L338.691511,1746.99793 L344.513458,1746.99793 L344.513458,1732.04969 L344.513458,1732.04969 Z M354.741201,1736.69151 L348.919255,1736.69151 L348.919255,1746.99793 L354.741201,1746.99793 L354.741201,1736.69151 L354.741201,1736.69151 Z M364.968944,1726.38509 L359.146998,1726.38509 L359.146998,1746.99793 L364.968944,1746.99793 L364.968944,1726.38509 L364.968944,1726.38509 Z M318,1748.9648 L318,1724.18219 C318,1719.61905 321.697723,1716 326.182195,1716 L367.093168,1716 C371.656315,1716 375.275362,1719.69772 375.275362,1724.18219 L375.275362,1748.9648 C375.275362,1753.52795 371.57764,1757.147 367.093168,1757.147 L339.084886,1757.147 L329.801242,1766.50932 C329.250518,1767.06004 328.463768,1767.37474 327.677019,1767.37474 C326.890269,1767.37474 326.182195,1767.06004 325.552795,1766.50932 C324.923395,1765.95859 324.608696,1765.09317 324.608696,1764.22774 L324.608696,1756.91097 C320.832298,1756.2029 318,1752.89855 318,1748.9648 L318,1748.9648 Z M323.743271,1748.9648 C323.743271,1750.30228 324.84472,1751.4824 326.26087,1751.4824 L330.351967,1751.4824 L330.351967,1757.93375 L336.803313,1751.4824 L367.250518,1751.4824 C368.587992,1751.4824 369.768116,1750.38095 369.768116,1748.9648 L369.768116,1724.18219 C369.768116,1722.84472 368.666667,1721.6646 367.250518,1721.6646 L326.339545,1721.6646 C325.00207,1721.6646 323.821946,1722.76605 323.821946,1724.18219 L323.821946,1748.9648 L323.743271,1748.9648 Z M385.73913,1733.85921 L380.782609,1733.85921 L380.782609,1739.60248 L385.73913,1739.60248 C387.076605,1739.60248 388.256729,1740.70393 388.256729,1742.12008 L388.256729,1766.90269 C388.256729,1768.24017 387.15528,1769.42029 385.73913,1769.42029 L381.648033,1769.42029 L381.648033,1775.79296 L375.196687,1769.34161 L344.828157,1769.34161 C343.490683,1769.34161 342.310559,1768.24017 342.310559,1766.82402 L342.310559,1762.57557 L341.36646,1762.57557 L336.645963,1767.29607 C336.881988,1771.62319 340.501035,1775.00621 344.828157,1775.00621 L372.915114,1775.00621 L382.198758,1784.28986 C382.749482,1784.84058 383.536232,1785.15528 384.401656,1785.15528 C386.132505,1785.15528 387.469979,1783.73913 387.469979,1782.08696 L387.469979,1774.77019 C391.167702,1773.98344 394,1770.67909 394,1766.74534 L394,1742.04141 C394,1737.55694 390.302277,1733.85921 385.73913,1733.85921 L385.73913,1733.85921 Z" id="path-1"></path>
        <mask id="mask-2" maskContentUnits="userSpaceOnUse" maskUnits="objectBoundingBox" x="0" y="0" width="76" height="69.1552795" fill="white">
            <use xlink:href="#path-1"></use>
        </mask>
    </defs>
    <g id="Solutions" stroke="none" stroke-width="1" fill="none" fill-rule="evenodd">
        <g id="6-Brokers-Developers" transform="translate(-318.000000, -1716.000000)" stroke="#FFFFFF" fill="#3592E7">
            <use id="icn-1" mask="url(#mask-2)" xlink:href="#path-1"></use>
        </g>
    </g>
</svg>