<?xml version="1.0" encoding="UTF-8" standalone="no"?>
<svg width="83px" height="89px" viewBox="0 0 83 89" version="1.1" xmlns="http://www.w3.org/2000/svg" xmlns:xlink="http://www.w3.org/1999/xlink">
    <!-- Generator: Sketch 40.2 (33826) - http://www.bohemiancoding.com/sketch -->
    <title>icn-3</title>
    <desc>Created with Sketch.</desc>
    <defs></defs>
    <g id="Solutions" stroke="none" stroke-width="1" fill="none" fill-rule="evenodd">
        <g id="6-Brokers-Developers" transform="translate(-315.000000, -2270.000000)" fill="#1B84E3">
            <g id="icn-3" transform="translate(315.000000, 2270.000000)">
                <path d="M4.44642857,0 C3.62789769,8.188e-05 2.96436753,0.664144997 2.96428571,1.48333333 L2.96428571,26.7 L1.48214286,26.7 C0.663611975,26.7000831 8.18142857e-05,27.3641447 0,28.1833333 L0,37.0717455 C8.18142857e-05,37.8909342 0.663611975,38.5549958 1.48214286,38.5550789 L5.87067537,38.5550789 L23.7084962,38.5550789 L23.7084962,54.9470692 C20.8450297,55.2500638 18.3178243,56.7968778 16.4946288,59.0494144 C16.0852266,58.9871144 15.6781629,58.8929673 15.2614397,58.8929673 C12.0843651,58.8929673 9.31509652,60.8256408 7.92599044,63.6442708 C5.02518698,64.8404308 2.95849617,67.5544473 2.95849617,70.7596339 C2.95849617,75.0740632 6.47894591,78.6108728 10.7802736,78.6108728 L30.7139366,78.6108728 C34.3507209,78.6113741 37.4005233,76.0727648 38.2636017,72.6833333 L62.25,72.6833333 L62.25,87.5166667 C62.250083,88.3358553 62.9136117,88.9999169 63.7321429,89 L81.5178571,89 C82.3363883,88.9999169 82.999917,88.3358553 83,87.5166667 L83,54.8833333 C82.999917,54.0641447 82.3363883,53.4000831 81.5178571,53.4 L63.7321429,53.4 C62.9136117,53.4000831 62.250083,54.0641447 62.25,54.8833333 L62.25,69.7166667 L38.3967634,69.7166667 C38.0933865,67.7076697 36.9968083,65.9194075 35.3803715,64.6582686 C34.8837617,59.8608749 31.3041911,55.9407779 26.6727822,55.06875 L26.6727822,38.5550789 L47.4980484,38.5550789 L51.8865785,38.5550789 C52.7051097,38.5549958 53.3686384,37.8909342 53.3687214,37.0717455 L53.3687214,28.1833333 C53.3686384,27.3641447 52.7051097,26.7000831 51.8865785,26.7 L50.3928571,26.7 L50.3928571,1.48333333 C50.3927741,0.664144997 49.7292455,8.188e-05 48.9107143,0 L4.44642857,0 L4.44642857,0 Z M5.92857143,2.96666667 L47.4285714,2.96666667 L47.4285714,26.7 L5.92857143,26.7 L5.92857143,2.96666667 L5.92857143,2.96666667 Z M2.96428571,29.6666667 L5.87067537,29.6666667 L17.7625558,29.6666667 L20.6631556,29.6666667 C20.3876104,30.6221914 21.1111149,31.5731001 22.1047711,31.5613936 L31.2697401,31.5613936 C32.2658054,31.5770398 32.9934278,30.624544 32.7171445,29.6666667 L47.4980484,29.6666667 L48.9107143,29.6666667 L50.4044356,29.6666667 L50.4044356,35.5884122 L47.4980484,35.5884122 L5.87067537,35.5884122 L2.96428571,35.5884122 L2.96428571,29.6666667 L2.96428571,29.6666667 Z M65.2142857,56.3666667 L80.0357143,56.3666667 L80.0357143,59.3333333 L65.2142857,59.3333333 L65.2142857,56.3666667 L65.2142857,56.3666667 Z M24.686942,57.85 L24.7332589,57.85 C28.9040119,57.85 32.3950986,61.2320831 32.5724044,65.4115231 C32.5952294,65.8975313 32.8549601,66.3413891 33.2671589,66.5993497 L33.2729481,66.5993497 C34.6903243,67.4883232 35.5656393,69.0766825 35.5656393,70.7596339 C35.5656393,73.4732499 33.3988057,75.6445028 30.7139366,75.6442061 L10.7802736,75.6442061 C8.09477716,75.6442061 5.92278188,73.4735465 5.92278188,70.7596339 C5.92278188,68.6034606 7.33597871,66.6976027 9.36181633,66.0778661 C9.79060678,65.9476264 10.1375171,65.6302643 10.3055246,65.2145186 C11.11913,63.2040086 13.1021322,61.8596369 15.2614397,61.8596339 C15.7072511,61.8596339 16.1528772,61.9121083 16.5814732,62.021875 C17.1947045,62.177091 17.8387943,61.9257876 18.185198,61.3960923 C19.6436091,59.1684104 22.0336323,57.8655068 24.686942,57.85 L24.686942,57.85 Z M65.2142857,62.3 L80.0357143,62.3 L80.0357143,80.1 L65.2142857,80.1 L65.2142857,62.3 L65.2142857,62.3 Z M65.2142857,83.0666667 L80.0357143,83.0666667 L80.0357143,86.0333333 L65.2142857,86.0333333 L65.2142857,83.0666667 L65.2142857,83.0666667 Z" id="Shape"></path>
            </g>
        </g>
    </g>
</svg>