<?xml version="1.0" encoding="UTF-8" standalone="no"?>
<svg width="85px" height="82px" viewBox="0 0 85 82" version="1.1" xmlns="http://www.w3.org/2000/svg" xmlns:xlink="http://www.w3.org/1999/xlink">
    <!-- Generator: Sketch 40.2 (33826) - http://www.bohemiancoding.com/sketch -->
    <title>icn-5</title>
    <desc>Created with Sketch.</desc>
    <defs></defs>
    <g id="Solutions" stroke="none" stroke-width="1" fill="none" fill-rule="evenodd">
        <g id="6-Brokers-Developers" transform="translate(-678.000000, -2811.000000)">
            <g id="icn-5" transform="translate(678.000000, 2811.000000)">
                <path d="M83.4821429,6.07142857 L72.7038393,6.07142857 C71.9980357,2.61223214 68.9319643,0 65.2678571,0 L28.8392857,0 C24.6545536,0 21.25,3.40455357 21.25,7.58928571 L21.25,24.2857143 L18.2142857,24.2857143 C17.3764286,24.2857143 16.6964286,24.9641964 16.6964286,25.8035714 L16.6964286,31.875 C16.6964286,32.4335714 17.0030357,32.9466071 17.4948214,33.2122321 L36.4285714,43.4076786 L36.4285714,56.1607143 C36.4285714,56.7739286 36.7989286,57.3294643 37.3650893,57.5632143 C37.5533036,57.6421429 37.750625,57.6785714 37.9464286,57.6785714 C38.3410714,57.6785714 38.7296429,57.52375 39.0195536,57.2338393 L45.0909821,51.1624107 C45.3763393,50.8785714 45.5357143,50.4930357 45.5357143,50.0892857 L45.5357143,43.4076786 L64.4694643,33.2122321 C64.96125,32.9466071 65.2678571,32.4335714 65.2678571,31.875 L65.2678571,25.8035714 C65.2678571,24.9641964 64.5878571,24.2857143 63.75,24.2857143 L60.7142857,24.2857143 L60.7142857,18.2142857 L77.4107143,18.2142857 C81.5954464,18.2142857 85,14.8097321 85,10.625 L85,7.58928571 C85,6.74991071 84.32,6.07142857 83.4821429,6.07142857 L83.4821429,6.07142857 Z M62.2321429,30.9673214 L43.2983929,41.1627679 C42.8066071,41.4283929 42.5,41.9414286 42.5,42.5 L42.5,49.4608929 L39.4642857,52.4966071 L39.4642857,42.5 C39.4642857,41.9414286 39.1576786,41.4283929 38.6658929,41.1627679 L19.7321429,30.9673214 L19.7321429,27.3214286 L22.7678571,27.3214286 L59.1964286,27.3214286 L62.2321429,27.3214286 L62.2321429,30.9673214 L62.2321429,30.9673214 Z M24.2857143,24.2857143 L24.2857143,7.58928571 C24.2857143,5.07875 26.32875,3.03571429 28.8392857,3.03571429 L59.1994643,3.03571429 C59.1554464,3.09339286 59.1235714,3.16169643 59.0810714,3.22089286 C58.9915179,3.346875 58.9141071,3.47892857 58.8336607,3.61098214 C58.6742857,3.86598214 58.5300893,4.12857143 58.4025893,4.40330357 C58.3342857,4.55205357 58.2675,4.69928571 58.2083036,4.85258929 C58.0944643,5.14553571 58.0049107,5.44758929 57.9275,5.75571429 C57.8925893,5.89839286 57.8470536,6.03651786 57.8197321,6.18223214 C57.7347321,6.63910714 57.6785714,7.10660714 57.6785714,7.58928571 L57.6785714,16.6964286 L57.6785714,24.2857143 L24.2857143,24.2857143 L24.2857143,24.2857143 Z M60.7142857,15.1785714 L60.7142857,7.58928571 C60.7142857,5.07875 62.7573214,3.03571429 65.2678571,3.03571429 C67.7783929,3.03571429 69.8214286,5.07875 69.8214286,7.58928571 L69.8214286,10.625 C69.8214286,11.1076786 69.8775893,11.5751786 69.9641071,12.0320536 C69.9914286,12.1777679 70.0354464,12.3158929 70.071875,12.4585714 C70.1492857,12.7666964 70.2388393,13.06875 70.3526786,13.3616964 C70.411875,13.515 70.4771429,13.6622321 70.5469643,13.8109821 C70.6744643,14.0857143 70.8186607,14.3483036 70.9780357,14.6033036 C71.06,14.7353571 71.1374107,14.8674107 71.2254464,14.9933929 C71.2679464,15.0525893 71.2998214,15.1208929 71.3438393,15.1785714 L60.7142857,15.1785714 L60.7142857,15.1785714 Z M81.9642857,10.625 C81.9642857,13.1355357 79.92125,15.1785714 77.4107143,15.1785714 C74.9001786,15.1785714 72.8571429,13.1355357 72.8571429,10.625 L72.8571429,9.10714286 L81.9642857,9.10714286 L81.9642857,10.625 L81.9642857,10.625 Z" id="Shape" fill="#1B84E3"></path>
                <path d="M78.9285714,63.75 C76.8566964,63.75 75.0276786,64.7958036 73.9317857,66.385 L66.7295536,62.7846429 C66.74625,62.5994643 66.7857143,62.4203571 66.7857143,62.2321429 C66.7857143,58.88375 64.0626786,56.1607143 60.7142857,56.1607143 C57.3658929,56.1607143 54.6428571,58.88375 54.6428571,62.2321429 C54.6428571,62.9425 54.7885714,63.6133929 55.0132143,64.2478571 L47.2873214,70.6850893 C46.17625,69.2476786 44.4534821,68.3035714 42.5,68.3035714 C40.9350893,68.3035714 39.5204464,68.9152679 38.4427679,69.8897321 L30.3009821,65.8188393 C30.3176786,65.6351786 30.3571429,65.4560714 30.3571429,65.2678571 C30.3571429,61.9194643 27.6341071,59.1964286 24.2857143,59.1964286 C20.9373214,59.1964286 18.2142857,61.9194643 18.2142857,65.2678571 C18.2142857,65.4940179 18.2567857,65.7095536 18.2810714,65.928125 L10.0983036,71.3833036 C9.02517857,70.4240179 7.62267857,69.8214286 6.07142857,69.8214286 C2.72303571,69.8214286 0,72.5444643 0,75.8928571 C0,79.24125 2.72303571,81.9642857 6.07142857,81.9642857 C9.41982143,81.9642857 12.1428571,79.24125 12.1428571,75.8928571 C12.1428571,75.1946429 12.0001786,74.534375 11.783125,73.9090179 L19.3966964,68.8333036 C20.5016964,70.3450893 22.2745536,71.3392857 24.2857143,71.3392857 C26.3575893,71.3392857 28.1866071,70.2934821 29.2825,68.7042857 L36.7716071,72.4488393 C36.5651786,73.0575 36.4285714,73.6980357 36.4285714,74.375 C36.4285714,77.7233929 39.1516071,80.4464286 42.5,80.4464286 C45.8483929,80.4464286 48.5714286,77.7233929 48.5714286,74.375 C48.5714286,74.12 48.5274107,73.8771429 48.4955357,73.63125 L56.7253571,66.7735714 C57.7954464,67.713125 59.18125,68.3035714 60.7142857,68.3035714 C62.7861607,68.3035714 64.6151786,67.2577679 65.7110714,65.6685714 L72.9133036,69.2689286 C72.8966071,69.4541071 72.8571429,69.6332143 72.8571429,69.8214286 C72.8571429,73.1698214 75.5801786,75.8928571 78.9285714,75.8928571 C82.2769643,75.8928571 85,73.1698214 85,69.8214286 C85,66.4730357 82.2769643,63.75 78.9285714,63.75 L78.9285714,63.75 Z M6.07142857,78.9285714 C4.39723214,78.9285714 3.03571429,77.5670536 3.03571429,75.8928571 C3.03571429,74.2186607 4.39723214,72.8571429 6.07142857,72.8571429 C7.745625,72.8571429 9.10714286,74.2186607 9.10714286,75.8928571 C9.10714286,77.5670536 7.745625,78.9285714 6.07142857,78.9285714 L6.07142857,78.9285714 Z M24.2857143,68.3035714 C22.6115179,68.3035714 21.25,66.9420536 21.25,65.2678571 C21.25,63.5936607 22.6115179,62.2321429 24.2857143,62.2321429 C25.9599107,62.2321429 27.3214286,63.5936607 27.3214286,65.2678571 C27.3214286,66.9420536 25.9599107,68.3035714 24.2857143,68.3035714 L24.2857143,68.3035714 Z M42.5,77.4107143 C40.8258036,77.4107143 39.4642857,76.0491964 39.4642857,74.375 C39.4642857,72.7008036 40.8258036,71.3392857 42.5,71.3392857 C44.1741964,71.3392857 45.5357143,72.7008036 45.5357143,74.375 C45.5357143,76.0491964 44.1741964,77.4107143 42.5,77.4107143 L42.5,77.4107143 Z M60.7142857,65.2678571 C59.0400893,65.2678571 57.6785714,63.9063393 57.6785714,62.2321429 C57.6785714,60.5579464 59.0400893,59.1964286 60.7142857,59.1964286 C62.3884821,59.1964286 63.75,60.5579464 63.75,62.2321429 C63.75,63.9063393 62.3884821,65.2678571 60.7142857,65.2678571 L60.7142857,65.2678571 Z M78.9285714,72.8571429 C77.254375,72.8571429 75.8928571,71.495625 75.8928571,69.8214286 C75.8928571,68.1472321 77.254375,66.7857143 78.9285714,66.7857143 C80.6027679,66.7857143 81.9642857,68.1472321 81.9642857,69.8214286 C81.9642857,71.495625 80.6027679,72.8571429 78.9285714,72.8571429 L78.9285714,72.8571429 Z" id="Shape" fill="#1B84E3"></path>
                <rect id="Rectangle-path" fill="#1B84E3" x="28.8392857" y="18.2142857" width="6.07142857" height="3.03571429"></rect>
                <rect id="Rectangle-path" fill="#1B84E3" x="37.9464286" y="18.2142857" width="6.07142857" height="3.03571429"></rect>
                <rect id="Rectangle-path" fill="#1B84E3" x="47.0535714" y="18.2142857" width="6.07142857" height="3.03571429"></rect>
                <rect id="Rectangle-path" fill="#1B84E3" x="28.8392857" y="12.1428571" width="6.07142857" height="3.03571429"></rect>
                <rect id="Rectangle-path" fill="#1B84E3" x="37.9464286" y="12.1428571" width="6.07142857" height="3.03571429"></rect>
                <rect id="Rectangle-path" fill="#1B84E3" x="47.0535714" y="12.1428571" width="6.07142857" height="3.03571429"></rect>
                <rect id="Rectangle-path" fill="#1571C3" x="28.8392857" y="6.07142857" width="6.07142857" height="3.03571429"></rect>
                <rect id="Rectangle-path" fill="#1571C3" x="37.9464286" y="6.07142857" width="6.07142857" height="3.03571429"></rect>
                <rect id="Rectangle-path" fill="#1571C3" x="47.0535714" y="6.07142857" width="6.07142857" height="3.03571429"></rect>
                <rect id="Rectangle-path" fill="#1B84E3" x="51.6071429" y="45.5357143" width="3.03571429" height="3.03571429"></rect>
                <rect id="Rectangle-path" fill="#1B84E3" x="57.6785714" y="45.5357143" width="3.03571429" height="3.03571429"></rect>
                <rect id="Rectangle-path" fill="#1B84E3" x="63.75" y="45.5357143" width="3.03571429" height="3.03571429"></rect>
                <rect id="Rectangle-path" fill="#1B84E3" x="15.1785714" y="45.5357143" width="3.03571429" height="3.03571429"></rect>
                <rect id="Rectangle-path" fill="#1B84E3" x="21.25" y="45.5357143" width="3.03571429" height="3.03571429"></rect>
                <rect id="Rectangle-path" fill="#1B84E3" x="27.3214286" y="45.5357143" width="3.03571429" height="3.03571429"></rect>
            </g>
        </g>
    </g>
</svg>