<?xml version="1.0" encoding="UTF-8" standalone="no"?>
<svg width="83px" height="83px" viewBox="0 0 83 83" version="1.1" xmlns="http://www.w3.org/2000/svg" xmlns:xlink="http://www.w3.org/1999/xlink">
    <!-- Generator: Sketch 40.2 (33826) - http://www.bohemiancoding.com/sketch -->
    <title>icn-3</title>
    <desc>Created with Sketch.</desc>
    <defs></defs>
    <g id="Solutions" stroke="none" stroke-width="1" fill="none" fill-rule="evenodd">
        <g id="7-Retailers-Restaurants" transform="translate(-309.000000, -2266.000000)" fill="#FF6500">
            <g id="icn-3" transform="translate(309.000000, 2266.000000)">
                <path d="M58.4410959,11.0287671 L39.5671233,11.0287671 C39.6808219,10.5739726 39.6808219,10.1191781 39.6808219,9.66438356 C39.6808219,4.66164384 35.5876712,0.568493151 30.5849315,0.568493151 C25.5821918,0.568493151 21.4890411,4.66164384 21.4890411,9.66438356 C21.4890411,10.1191781 21.4890411,10.5739726 21.6027397,11.0287671 L2.84246575,11.0287671 C1.59178082,11.0287671 0.568493151,12.0520548 0.568493151,13.3027397 L0.568493151,80.1575342 C0.568493151,81.4082192 1.59178082,82.4315068 2.84246575,82.4315068 L58.4410959,82.4315068 C59.6917808,82.4315068 60.7150685,81.4082192 60.7150685,80.1575342 L60.7150685,13.3027397 C60.7150685,12.0520548 59.6917808,11.0287671 58.4410959,11.0287671 L58.4410959,11.0287671 Z M30.6986301,5.11643836 C33.2,5.11643836 35.2465753,7.1630137 35.2465753,9.66438356 C35.2465753,10.1191781 35.1328767,10.5739726 35.0191781,11.0287671 L26.3780822,11.0287671 C26.2643836,10.5739726 26.1506849,10.1191781 26.1506849,9.66438356 C26.1506849,7.1630137 28.1972603,5.11643836 30.6986301,5.11643836 L30.6986301,5.11643836 Z M16.9410959,15.5767123 L44.3424658,15.5767123 L44.3424658,21.9438356 L16.9410959,21.9438356 L16.9410959,15.5767123 L16.9410959,15.5767123 Z M13.1890411,25.9232877 C13.530137,26.2643836 14.0986301,26.4917808 14.6671233,26.4917808 L46.6164384,26.4917808 C47.1849315,26.4917808 47.639726,26.2643836 48.0945205,25.9232877 L48.0945205,68.6739726 L13.1890411,68.6739726 L13.1890411,25.9232877 L13.1890411,25.9232877 Z M56.1671233,77.8835616 L5.11643836,77.8835616 L5.11643836,15.5767123 L12.3931507,15.5767123 L12.3931507,20.2383562 L10.9150685,20.2383562 C9.66438356,20.2383562 8.64109589,21.2616438 8.64109589,22.5123288 L8.64109589,70.9479452 C8.64109589,72.1986301 9.66438356,73.2219178 10.9150685,73.2219178 L50.3684932,73.2219178 C51.6191781,73.2219178 52.6424658,72.1986301 52.6424658,70.9479452 L52.6424658,22.5123288 C52.6424658,21.2616438 51.6191781,20.2383562 50.3684932,20.2383562 L48.890411,20.2383562 L48.890411,15.5767123 L56.1671233,15.5767123 L56.1671233,77.8835616 L56.1671233,77.8835616 Z" id="Shape"></path>
                <path d="M41.1589041,32.4041096 L20.1246575,32.4041096 C18.8739726,32.4041096 17.8506849,33.4273973 17.8506849,34.6780822 C17.8506849,35.9287671 18.8739726,36.9520548 20.1246575,36.9520548 L41.1589041,36.9520548 C42.409589,36.9520548 43.4328767,35.9287671 43.4328767,34.6780822 C43.4328767,33.4273973 42.409589,32.4041096 41.1589041,32.4041096 L41.1589041,32.4041096 Z" id="Shape"></path>
                <path d="M41.1589041,43.5465753 L20.1246575,43.5465753 C18.8739726,43.5465753 17.8506849,44.569863 17.8506849,45.8205479 C17.8506849,47.0712329 18.8739726,48.0945205 20.1246575,48.0945205 L41.1589041,48.0945205 C42.409589,48.0945205 43.4328767,47.0712329 43.4328767,45.8205479 C43.4328767,44.569863 42.409589,43.5465753 41.1589041,43.5465753 L41.1589041,43.5465753 Z" id="Shape"></path>
                <path d="M41.1589041,54.5753425 L20.1246575,54.5753425 C18.8739726,54.5753425 17.8506849,55.5986301 17.8506849,56.8493151 C17.8506849,58.1 18.8739726,59.1232877 20.1246575,59.1232877 L41.1589041,59.1232877 C42.409589,59.1232877 43.4328767,58.1 43.4328767,56.8493151 C43.4328767,55.5986301 42.409589,54.5753425 41.1589041,54.5753425 L41.1589041,54.5753425 Z" id="Shape"></path>
                <path d="M77.769863,9.4369863 L71.8575342,9.4369863 C69.3561644,9.4369863 67.1958904,11.4835616 67.1958904,14.0986301 L67.1958904,62.1931507 C67.1958904,62.6479452 67.309589,62.9890411 67.5369863,63.330137 L72.8808219,72.4260274 C73.790411,74.0178082 76.0643836,73.9041096 76.860274,72.4260274 L82.2041096,63.330137 C82.4315068,62.9890411 82.5452055,62.5342466 82.5452055,62.1931507 L82.5452055,14.0986301 C82.4315068,11.4835616 80.3849315,9.4369863 77.769863,9.4369863 L77.769863,9.4369863 Z M77.8835616,61.5109589 L74.8136986,66.7410959 L71.7438356,61.5109589 L71.8575342,13.9849315 L77.8835616,14.0986301 L77.8835616,61.5109589 L77.8835616,61.5109589 Z" id="Shape"></path>
            </g>
        </g>
    </g>
</svg>