<?xml version="1.0" encoding="UTF-8" standalone="no"?>
<svg width="74px" height="74px" viewBox="0 0 74 74" version="1.1" xmlns="http://www.w3.org/2000/svg" xmlns:xlink="http://www.w3.org/1999/xlink">
    <!-- Generator: Sketch 40.2 (33826) - http://www.bohemiancoding.com/sketch -->
    <title>icn-4</title>
    <desc>Created with Sketch.</desc>
    <defs>
        <path d="M378,2857 L368,2857 L368,2847 L378,2847 L378,2857 L378,2857 Z M361,2821.5625 C361,2823.28791 360.60625,2824.92733 359.90305,2826.39534 L349,2847 L338.0968,2826.39519 C337.39375,2824.92733 337,2823.28791 337,2821.5625 C337,2815.17595 342.37195,2810 349,2810 C355.62805,2810 361,2815.1761 361,2821.5625 L361,2821.5625 Z M356,2822 C356,2818.13542 352.864583,2815 349,2815 C345.135417,2815 342,2818.13542 342,2822 C342,2825.86458 345.135417,2829 349,2829 C352.864583,2829 356,2825.86458 356,2822 L356,2822 Z M386,2829.14286 L386,2874.85714 C386,2879.90629 381.858313,2884 376.75,2884 L321.25,2884 C316.141687,2884 312,2879.90629 312,2874.85714 L312,2829.14286 C312,2824.09371 316.141687,2820 321.25,2820 L333.047363,2820 C332.938965,2820.75 332.8125,2821.5 332.8125,2822.28571 C332.8125,2823.058 332.957031,2823.81257 333.06543,2824.57143 L330.5,2824.57143 L330.5,2838.28571 L339.090648,2838.28571 L341.448387,2842.85714 L330.5,2842.85714 L330.5,2861.14286 L358.25,2861.14286 L358.25,2842.85714 L356.547277,2842.85714 L362.875,2830.58929 L362.875,2838.28571 L381.375,2838.28571 L381.375,2829.14286 C381.375,2826.62057 379.301844,2824.57143 376.75,2824.57143 L364.939051,2824.57143 C365.052074,2823.81257 365.1875,2823.06257 365.1875,2822.28571 C365.1875,2821.5 365.065516,2820.75 364.952637,2820 L376.75,2820 C381.858313,2820 386,2824.09371 386,2829.14286 L386,2829.14286 Z M327,2866 L317,2866 L317,2875.33333 C317,2877.90817 319.246094,2880 322,2880 L327,2880 L327,2866 L327,2866 Z M327,2843 L317,2843 L317,2861 L327,2861 L327,2843 L327,2843 Z M327,2824 L322,2824 C319.246094,2824 317,2826.09183 317,2828.66667 L317,2838 L327,2838 L327,2824 L327,2824 Z M358,2866 L330,2866 L330,2880 L358,2880 L358,2866 L358,2866 Z M381,2866 L363,2866 L363,2880 L376.5,2880 C378.982875,2880 381,2877.90817 381,2875.33333 L381,2866 L381,2866 Z M381,2843 L363,2843 L363,2861 L381,2861 L381,2843 L381,2843 Z" id="path-1"></path>
    </defs>
    <g id="Solutions" stroke="none" stroke-width="1" fill="none" fill-rule="evenodd">
        <g id="7-Retailers-Restaurants" transform="translate(-312.000000, -2810.000000)" fill="#FF6500">
            <use id="icn-4" xlink:href="#path-1"></use>
        </g>
    </g>
</svg>