<?xml version="1.0" encoding="UTF-8" standalone="no"?>
<svg width="76px" height="70px" viewBox="0 0 76 70" version="1.1" xmlns="http://www.w3.org/2000/svg" xmlns:xlink="http://www.w3.org/1999/xlink">
    <!-- Generator: Sketch 40.2 (33826) - http://www.bohemiancoding.com/sketch -->
    <title>icn-1</title>
    <desc>Created with Sketch.</desc>
    <defs>
        <path d="M329.285714,1746.99793 L323.463768,1746.99793 L323.463768,1742.19876 L329.285714,1742.19876 L329.285714,1746.99793 L329.285714,1746.99793 Z M339.513458,1732.04969 L333.691511,1732.04969 L333.691511,1746.99793 L339.513458,1746.99793 L339.513458,1732.04969 L339.513458,1732.04969 Z M349.741201,1736.69151 L343.919255,1736.69151 L343.919255,1746.99793 L349.741201,1746.99793 L349.741201,1736.69151 L349.741201,1736.69151 Z M359.968944,1726.38509 L354.146998,1726.38509 L354.146998,1746.99793 L359.968944,1746.99793 L359.968944,1726.38509 L359.968944,1726.38509 Z M313,1748.9648 L313,1724.18219 C313,1719.61905 316.697723,1716 321.182195,1716 L362.093168,1716 C366.656315,1716 370.275362,1719.69772 370.275362,1724.18219 L370.275362,1748.9648 C370.275362,1753.52795 366.57764,1757.147 362.093168,1757.147 L334.084886,1757.147 L324.801242,1766.50932 C324.250518,1767.06004 323.463768,1767.37474 322.677019,1767.37474 C321.890269,1767.37474 321.182195,1767.06004 320.552795,1766.50932 C319.923395,1765.95859 319.608696,1765.09317 319.608696,1764.22774 L319.608696,1756.91097 C315.832298,1756.2029 313,1752.89855 313,1748.9648 L313,1748.9648 Z M318.743271,1748.9648 C318.743271,1750.30228 319.84472,1751.4824 321.26087,1751.4824 L325.351967,1751.4824 L325.351967,1757.93375 L331.803313,1751.4824 L362.250518,1751.4824 C363.587992,1751.4824 364.768116,1750.38095 364.768116,1748.9648 L364.768116,1724.18219 C364.768116,1722.84472 363.666667,1721.6646 362.250518,1721.6646 L321.339545,1721.6646 C320.00207,1721.6646 318.821946,1722.76605 318.821946,1724.18219 L318.821946,1748.9648 L318.743271,1748.9648 Z M380.73913,1733.85921 L375.782609,1733.85921 L375.782609,1739.60248 L380.73913,1739.60248 C382.076605,1739.60248 383.256729,1740.70393 383.256729,1742.12008 L383.256729,1766.90269 C383.256729,1768.24017 382.15528,1769.42029 380.73913,1769.42029 L376.648033,1769.42029 L376.648033,1775.79296 L370.196687,1769.34161 L339.828157,1769.34161 C338.490683,1769.34161 337.310559,1768.24017 337.310559,1766.82402 L337.310559,1762.57557 L336.36646,1762.57557 L331.645963,1767.29607 C331.881988,1771.62319 335.501035,1775.00621 339.828157,1775.00621 L367.915114,1775.00621 L377.198758,1784.28986 C377.749482,1784.84058 378.536232,1785.15528 379.401656,1785.15528 C381.132505,1785.15528 382.469979,1783.73913 382.469979,1782.08696 L382.469979,1774.77019 C386.167702,1773.98344 389,1770.67909 389,1766.74534 L389,1742.04141 C389,1737.55694 385.302277,1733.85921 380.73913,1733.85921 L380.73913,1733.85921 Z" id="path-1"></path>
        <mask id="mask-2" maskContentUnits="userSpaceOnUse" maskUnits="objectBoundingBox" x="0" y="0" width="76" height="69.1552795" fill="white">
            <use xlink:href="#path-1"></use>
        </mask>
    </defs>
    <g id="Solutions" stroke="none" stroke-width="1" fill="none" fill-rule="evenodd">
        <g id="7-Retailers-Restaurants" transform="translate(-313.000000, -1716.000000)" stroke="#FFFFFF" fill="#FF6500">
            <use id="icn-1" mask="url(#mask-2)" xlink:href="#path-1"></use>
        </g>
    </g>
</svg>