<?xml version="1.0" encoding="UTF-8" standalone="no"?>
<svg width="83px" height="83px" viewBox="0 0 83 83" version="1.1" xmlns="http://www.w3.org/2000/svg" xmlns:xlink="http://www.w3.org/1999/xlink">
    <!-- Generator: Sketch 40.2 (33826) - http://www.bohemiancoding.com/sketch -->
    <title>icn-2</title>
    <desc>Created with Sketch.</desc>
    <defs></defs>
    <g id="Solutions" stroke="none" stroke-width="1" fill="none" fill-rule="evenodd">
        <g id="7-Retailers-Restaurants" transform="translate(-309.000000, -1973.000000)" fill="#FF6500">
            <g id="icn-2" transform="translate(309.000000, 1973.000000)">
                <path d="M63.7321429,23.7142857 L54.6895893,23.7142857 C54.0003929,20.3364821 51.0079464,17.7857143 47.4285714,17.7857143 L35.5714286,17.7857143 C31.9935357,17.7857143 28.9996071,20.3364821 28.3104107,23.7142857 L19.2678571,23.7142857 C18.4497143,23.7142857 17.7857143,24.3782857 17.7857143,25.1964286 L17.7857143,83 L20.75,83 L20.75,26.6785714 L62.25,26.6785714 L62.25,83 L65.2142857,83 L65.2142857,25.1964286 C65.2142857,24.3782857 64.5502857,23.7142857 63.7321429,23.7142857 L63.7321429,23.7142857 Z M35.5714286,20.75 L47.4285714,20.75 C49.3583214,20.75 50.9886786,21.9935179 51.6022857,23.7142857 L31.3977143,23.7142857 C32.0113214,21.9935179 33.6416786,20.75 35.5714286,20.75 L35.5714286,20.75 Z" id="Shape"></path>
                <path d="M41.5,14.8214286 C45.5862679,14.8214286 48.9107143,11.4969821 48.9107143,7.41071429 C48.9107143,3.32444643 45.5862679,0 41.5,0 C37.4137321,0 34.0892857,3.32444643 34.0892857,7.41071429 C34.0892857,11.4969821 37.4137321,14.8214286 41.5,14.8214286 L41.5,14.8214286 Z M41.5,2.96428571 C43.9514643,2.96428571 45.9464286,4.95925 45.9464286,7.41071429 C45.9464286,9.86217857 43.9514643,11.8571429 41.5,11.8571429 C39.0485357,11.8571429 37.0535714,9.86217857 37.0535714,7.41071429 C37.0535714,4.95925 39.0485357,2.96428571 41.5,2.96428571 L41.5,2.96428571 Z" id="Shape"></path>
                <path d="M68.1785714,35.5714286 C68.1785714,39.6576964 71.5030179,42.9821429 75.5892857,42.9821429 C79.6755536,42.9821429 83,39.6576964 83,35.5714286 C83,31.4851607 79.6755536,28.1607143 75.5892857,28.1607143 C71.5030179,28.1607143 68.1785714,31.4851607 68.1785714,35.5714286 L68.1785714,35.5714286 Z M80.0357143,35.5714286 C80.0357143,38.0228929 78.04075,40.0178571 75.5892857,40.0178571 C73.1378214,40.0178571 71.1428571,38.0228929 71.1428571,35.5714286 C71.1428571,33.1199643 73.1378214,31.125 75.5892857,31.125 C78.04075,31.125 80.0357143,33.1199643 80.0357143,35.5714286 L80.0357143,35.5714286 Z" id="Shape"></path>
                <path d="M7.41071429,28.1607143 C3.32444643,28.1607143 0,31.4851607 0,35.5714286 C0,39.6576964 3.32444643,42.9821429 7.41071429,42.9821429 C11.4969821,42.9821429 14.8214286,39.6576964 14.8214286,35.5714286 C14.8214286,31.4851607 11.4969821,28.1607143 7.41071429,28.1607143 L7.41071429,28.1607143 Z M7.41071429,40.0178571 C4.95925,40.0178571 2.96428571,38.0228929 2.96428571,35.5714286 C2.96428571,33.1199643 4.95925,31.125 7.41071429,31.125 C9.86217857,31.125 11.8571429,33.1199643 11.8571429,35.5714286 C11.8571429,38.0228929 9.86217857,40.0178571 7.41071429,40.0178571 L7.41071429,40.0178571 Z" id="Shape"></path>
                <path d="M75.5892857,47.4285714 C71.5030179,47.4285714 68.1785714,50.7530179 68.1785714,54.8392857 C68.1785714,58.9255536 71.5030179,62.25 75.5892857,62.25 C79.6755536,62.25 83,58.9255536 83,54.8392857 C83,50.7530179 79.6755536,47.4285714 75.5892857,47.4285714 L75.5892857,47.4285714 Z M75.5892857,59.2857143 C73.1378214,59.2857143 71.1428571,57.29075 71.1428571,54.8392857 C71.1428571,52.3878214 73.1378214,50.3928571 75.5892857,50.3928571 C78.04075,50.3928571 80.0357143,52.3878214 80.0357143,54.8392857 C80.0357143,57.29075 78.04075,59.2857143 75.5892857,59.2857143 L75.5892857,59.2857143 Z" id="Shape"></path>
                <path d="M7.41071429,47.4285714 C3.32444643,47.4285714 0,50.7530179 0,54.8392857 C0,58.9255536 3.32444643,62.25 7.41071429,62.25 C11.4969821,62.25 14.8214286,58.9255536 14.8214286,54.8392857 C14.8214286,50.7530179 11.4969821,47.4285714 7.41071429,47.4285714 L7.41071429,47.4285714 Z M7.41071429,59.2857143 C4.95925,59.2857143 2.96428571,57.29075 2.96428571,54.8392857 C2.96428571,52.3878214 4.95925,50.3928571 7.41071429,50.3928571 C9.86217857,50.3928571 11.8571429,52.3878214 11.8571429,54.8392857 C11.8571429,57.29075 9.86217857,59.2857143 7.41071429,59.2857143 L7.41071429,59.2857143 Z" id="Shape"></path>
                <path d="M75.5892857,66.6964286 C71.5030179,66.6964286 68.1785714,70.020875 68.1785714,74.1071429 C68.1785714,78.1934107 71.5030179,81.5178571 75.5892857,81.5178571 C79.6755536,81.5178571 83,78.1934107 83,74.1071429 C83,70.020875 79.6755536,66.6964286 75.5892857,66.6964286 L75.5892857,66.6964286 Z M75.5892857,78.5535714 C73.1378214,78.5535714 71.1428571,76.5586071 71.1428571,74.1071429 C71.1428571,71.6556786 73.1378214,69.6607143 75.5892857,69.6607143 C78.04075,69.6607143 80.0357143,71.6556786 80.0357143,74.1071429 C80.0357143,76.5586071 78.04075,78.5535714 75.5892857,78.5535714 L75.5892857,78.5535714 Z" id="Shape"></path>
                <path d="M7.41071429,66.6964286 C3.32444643,66.6964286 0,70.020875 0,74.1071429 C0,78.1934107 3.32444643,81.5178571 7.41071429,81.5178571 C11.4969821,81.5178571 14.8214286,78.1934107 14.8214286,74.1071429 C14.8214286,70.020875 11.4969821,66.6964286 7.41071429,66.6964286 L7.41071429,66.6964286 Z M7.41071429,78.5535714 C4.95925,78.5535714 2.96428571,76.5586071 2.96428571,74.1071429 C2.96428571,71.6556786 4.95925,69.6607143 7.41071429,69.6607143 C9.86217857,69.6607143 11.8571429,71.6556786 11.8571429,74.1071429 C11.8571429,76.5586071 9.86217857,78.5535714 7.41071429,78.5535714 L7.41071429,78.5535714 Z" id="Shape"></path>
                <rect id="Rectangle-path" x="5.92857143" y="10.375" width="11.8571429" height="2.96428571"></rect>
                <rect id="Rectangle-path" x="62.25" y="5.92857143" width="11.8571429" height="2.96428571"></rect>
                <path d="M4.74285714,24.6035714 C5.02891071,24.983 5.47058929,25.1964286 5.92857143,25.1964286 C6.08419643,25.1964286 6.24278571,25.1712321 6.39692857,25.1208393 C7.003125,24.9177857 7.41071429,24.3530893 7.41071429,23.7142857 L7.41071429,19.2678571 L22.2321429,19.2678571 C23.0502857,19.2678571 23.7142857,18.6038571 23.7142857,17.7857143 L23.7142857,5.92857143 C23.7142857,5.11042857 23.0502857,4.44642857 22.2321429,4.44642857 L1.48214286,4.44642857 C0.664,4.44642857 0,5.11042857 0,5.92857143 L0,17.7857143 C0,18.1058571 0.10375,18.4185893 0.296428571,18.675 L4.74285714,24.6035714 L4.74285714,24.6035714 Z M2.96428571,7.41071429 L20.75,7.41071429 L20.75,16.3035714 L5.92857143,16.3035714 C5.11042857,16.3035714 4.44642857,16.9675714 4.44642857,17.7857143 L4.44642857,19.2678571 L2.96428571,17.2921607 L2.96428571,7.41071429 L2.96428571,7.41071429 Z" id="Shape"></path>
                <path d="M51.875,14.8214286 L78.5535714,14.8214286 C79.3717143,14.8214286 80.0357143,14.1574286 80.0357143,13.3392857 L80.0357143,1.48214286 C80.0357143,0.664 79.3717143,0 78.5535714,0 L57.8035714,0 C56.9854286,0 56.3214286,0.664 56.3214286,1.48214286 L56.3214286,8.15178571 L50.9857143,12.1535714 C50.4758571,12.5359643 50.266875,13.2029286 50.4684464,13.8076429 C50.6715,14.4138393 51.2361964,14.8214286 51.875,14.8214286 L51.875,14.8214286 Z M58.6928571,10.0785714 C59.0663571,9.79992857 59.2857143,9.35973214 59.2857143,8.89285714 L59.2857143,2.96428571 L77.0714286,2.96428571 L77.0714286,11.8571429 L56.3214286,11.8571429 L58.6928571,10.0785714 L58.6928571,10.0785714 Z" id="Shape"></path>
                <path d="M32.5923214,35.3609643 C32.5078393,34.7651429 32.069125,34.279 31.4851607,34.1322679 L25.5565893,32.650125 L24.83775,35.5254821 L29.7999643,36.7660357 L30.8982321,44.4642857 L29.6428571,44.4642857 L29.6428571,47.4285714 L35.5714286,47.4285714 L35.5714286,44.4642857 L33.8921607,44.4642857 L32.5923214,35.3609643 L32.5923214,35.3609643 Z" id="Shape"></path>
                <path d="M32.5923214,53.1466786 C32.5078393,52.5508571 32.069125,52.0647143 31.4851607,51.9179821 L25.5565893,50.4358393 L24.83775,53.3111964 L29.7999643,54.55175 L30.8982321,62.25 L29.6428571,62.25 L29.6428571,65.2142857 L35.5714286,65.2142857 L35.5714286,62.25 L33.8921607,62.25 L32.5923214,53.1466786 L32.5923214,53.1466786 Z" id="Shape"></path>
                <path d="M32.5923214,70.9323929 C32.5078393,70.3365714 32.069125,69.8504286 31.4851607,69.7036964 L25.5565893,68.2215536 L24.83775,71.0969107 L29.7999643,72.3374643 L30.8982321,80.0357143 L29.6428571,80.0357143 L29.6428571,83 L35.5714286,83 L35.5714286,80.0357143 L33.8921607,80.0357143 L32.5923214,70.9323929 L32.5923214,70.9323929 Z" id="Shape"></path>
                <path d="M51.5148393,34.13375 C50.9293929,34.2804821 50.4921607,34.7651429 50.4076786,35.3624464 L49.1078393,44.4642857 L47.4285714,44.4642857 L47.4285714,47.4285714 L53.3571429,47.4285714 L53.3571429,44.4642857 L52.1017679,44.4642857 L53.2015179,36.7675179 L58.1637321,35.5269643 L57.4448929,32.6516071 L51.5148393,34.13375 L51.5148393,34.13375 Z" id="Shape"></path>
                <path d="M51.5148393,51.9194643 C50.9293929,52.0661964 50.4921607,52.5508571 50.4076786,53.1481607 L49.1078393,62.25 L47.4285714,62.25 L47.4285714,65.2142857 L53.3571429,65.2142857 L53.3571429,62.25 L52.1017679,62.25 L53.2015179,54.5532321 L58.1637321,53.3126786 L57.4448929,50.4373214 L51.5148393,51.9194643 L51.5148393,51.9194643 Z" id="Shape"></path>
                <path d="M58.1637321,71.0983929 L57.4448929,68.2230357 L51.5163214,69.7051786 C50.930875,69.8519107 50.4936429,70.3365714 50.4091607,70.933875 L49.1078393,80.0357143 L47.4285714,80.0357143 L47.4285714,83 L53.3571429,83 L53.3571429,80.0357143 L52.1017679,80.0357143 L53.2015179,72.3389464 L58.1637321,71.0983929 L58.1637321,71.0983929 Z" id="Shape"></path>
                <polygon id="Shape" points="42.9821429 29.6428571 40.0178571 29.6428571 40.0178571 38.5357143 38.5357143 38.5357143 38.5357143 41.5 44.4642857 41.5 44.4642857 38.5357143 42.9821429 38.5357143"></polygon>
                <rect id="Rectangle-path" x="40.0178571" y="44.4642857" width="2.96428571" height="2.96428571"></rect>
                <rect id="Rectangle-path" x="40.0178571" y="50.3928571" width="2.96428571" height="2.96428571"></rect>
                <rect id="Rectangle-path" x="40.0178571" y="56.3214286" width="2.96428571" height="2.96428571"></rect>
            </g>
        </g>
    </g>
</svg>